<svg width="25" height="24" viewBox="0 0 25 24" fill="none" xmlns="http://www.w3.org/2000/svg">
<path fill-rule="evenodd" clip-rule="evenodd" d="M12.2188 2C6.69575 2 2.21875 6.484 2.21875 12.017C2.21875 16.442 5.08375 20.197 9.05775 21.521C9.55775 21.613 9.73975 21.304 9.73975 21.038C9.73975 20.801 9.73175 20.17 9.72675 19.335C6.94475 19.94 6.35775 17.992 6.35775 17.992C5.90375 16.834 5.24775 16.526 5.24775 16.526C4.33975 15.906 5.31675 15.918 5.31675 15.918C6.31975 15.988 6.84775 16.95 6.84775 16.95C7.73975 18.48 9.18875 18.038 9.75775 17.782C9.84975 17.135 10.1077 16.694 10.3938 16.444C8.17375 16.191 5.83875 15.331 5.83875 11.493C5.83875 10.4 6.22875 9.505 6.86775 8.805C6.76475 8.552 6.42175 7.533 6.96575 6.155C6.96575 6.155 7.80575 5.885 9.71575 7.181C10.5315 6.95851 11.3732 6.84519 12.2188 6.844C13.0688 6.848 13.9237 6.959 14.7227 7.181C16.6318 5.885 17.4697 6.154 17.4697 6.154C18.0157 7.533 17.6718 8.552 17.5697 8.805C18.2098 9.505 18.5977 10.4 18.5977 11.493C18.5977 15.341 16.2587 16.188 14.0317 16.436C14.3907 16.745 14.7098 17.356 14.7098 18.291C14.7098 19.629 14.6978 20.71 14.6978 21.038C14.6978 21.306 14.8777 21.618 15.3857 21.52C17.377 20.8521 19.1081 19.5753 20.3342 17.87C21.5604 16.1648 22.2196 14.1173 22.2188 12.017C22.2188 6.484 17.7407 2 12.2188 2Z" fill="#9CA3AF"/>
</svg>
