<svg width="237" height="450" viewBox="0 0 237 450" fill="none" xmlns="http://www.w3.org/2000/svg">
<g filter="url(#filter0_bi_9_768)">
<rect width="14.8785" height="323.855" transform="matrix(0.866025 -0.5 2.20305e-08 1 223.674 136.608)" fill="url(#paint0_radial_9_768)"/>
</g>
<g filter="url(#filter1_bi_9_768)">
<rect width="14.8785" height="258.269" transform="matrix(0.866025 -0.5 0.866025 0.5 0 7.66089)" fill="url(#paint1_radial_9_768)"/>
</g>
<g filter="url(#filter2_bi_9_768)">
<rect width="258.39" height="323.855" transform="matrix(0.866025 0.5 -2.20305e-08 1 0 7.66089)" fill="url(#paint2_radial_9_768)"/>
<g clip-path="url(#clip0_9_768)">
<path d="M127.251 235.152C131.02 236.845 134.076 233.531 134.076 227.751C134.076 221.971 131.02 215.913 127.251 214.22C123.481 212.527 120.426 215.841 120.426 221.621C120.426 227.402 123.481 233.46 127.251 235.152Z" fill="url(#paint3_linear_9_768)"/>
<path d="M112.777 240.386C112.994 240.806 113.167 241.269 113.287 241.748C113.406 242.227 113.469 242.713 113.471 243.177C113.474 243.642 113.416 244.075 113.302 244.453C113.188 244.83 113.019 245.144 112.805 245.375C112.591 245.607 112.337 245.752 112.058 245.802C111.778 245.852 111.479 245.806 111.177 245.666C110.874 245.526 110.576 245.296 110.298 244.988C110.021 244.681 109.77 244.302 109.56 243.875C104.867 234.571 102.23 223.626 102.23 213.448C102.23 203.27 104.867 194.693 109.56 189.604C109.77 189.365 110.021 189.212 110.298 189.153C110.576 189.095 110.874 189.133 111.177 189.265C111.479 189.396 111.778 189.619 112.058 189.92C112.337 190.221 112.591 190.594 112.805 191.018C113.019 191.441 113.188 191.907 113.302 192.387C113.416 192.867 113.474 193.352 113.471 193.814C113.469 194.276 113.406 194.706 113.287 195.078C113.167 195.45 112.994 195.757 112.777 195.981C110.875 198.043 109.367 200.827 108.338 204.175C107.309 207.522 106.78 211.367 106.78 215.491C106.78 219.614 107.309 223.935 108.338 228.207C109.367 232.478 110.875 236.617 112.777 240.386ZM144.951 259.767C144.521 260.21 143.947 260.304 143.35 260.028C142.754 259.752 142.183 259.129 141.761 258.293C141.34 257.456 141.1 256.474 141.095 255.557C141.09 254.64 141.319 253.861 141.734 253.389C143.635 251.328 145.143 248.543 146.172 245.196C147.201 241.849 147.731 238.003 147.731 233.88C147.731 229.757 147.201 225.436 146.172 221.164C145.143 216.893 143.635 212.754 141.734 208.984C141.516 208.565 141.343 208.102 141.224 207.623C141.105 207.144 141.042 206.658 141.039 206.193C141.037 205.729 141.094 205.295 141.208 204.918C141.323 204.541 141.492 204.227 141.705 203.995C141.919 203.764 142.173 203.619 142.453 203.569C142.732 203.519 143.032 203.565 143.334 203.705C143.636 203.845 143.935 204.075 144.212 204.382C144.49 204.69 144.741 205.068 144.951 205.496C149.644 214.8 152.28 225.745 152.28 235.923C152.28 246.101 149.643 254.678 144.951 259.767Z" fill="url(#paint4_linear_9_768)"/>
<path d="M99.9502 303.135L130.092 316.67L129.526 242.803C132.288 243.178 134.742 241.874 136.413 239.143C138.084 236.411 138.852 232.447 138.568 228.019C138.285 223.59 136.97 219.014 134.879 215.176C132.788 211.338 130.07 208.512 127.251 207.246C124.432 205.98 121.713 206.364 119.622 208.324C117.531 210.284 116.216 213.681 115.933 217.854C115.65 222.028 116.418 226.682 118.089 230.914C119.759 235.146 122.214 238.655 124.976 240.76L124.976 275.996C124.968 286.167 122.329 294.736 117.637 299.824C112.946 304.911 106.585 306.102 99.9502 303.135Z" fill="url(#paint5_linear_9_768)"/>
<g filter="url(#filter3_bi_9_768)">
<path d="M140.903 321.523C142.11 322.065 143.267 321.85 144.121 320.924C144.974 319.999 145.453 318.44 145.453 316.589L145.453 288.585C153.214 283.154 158.912 273.225 161.715 260.248C164.518 247.272 164.279 231.928 161.034 216.459C157.789 200.989 151.707 186.204 143.676 174.263C135.646 162.322 126.088 153.852 116.399 150.089C91.776 140.455 72.6519 164.093 72.6519 201.88L72.6519 206.415L64.6301 230.479C64.1552 231.906 64.1109 233.744 64.5062 235.611C64.9015 237.478 65.7061 239.23 66.7527 240.503L72.6519 247.677L72.6519 273.431C72.6519 278.058 73.8504 283.033 75.9836 287.262C78.1169 291.491 81.0102 294.628 84.0271 295.983L140.903 321.523Z" fill="url(#paint6_linear_9_768)" fill-opacity="0.2"/>
<path d="M145.303 288.341L145.24 288.385L145.24 288.489L145.24 316.493C145.24 318.297 144.772 319.807 143.951 320.698C143.13 321.588 142.031 321.782 140.903 321.275L84.0271 295.735C81.089 294.416 78.2545 291.353 76.1538 287.189C74.0521 283.022 72.8653 278.107 72.8653 273.527L72.8653 247.773L72.8653 247.64L72.7695 247.523L66.8703 240.349C65.8753 239.139 65.0967 237.455 64.7121 235.639C64.3278 233.824 64.3712 232.035 64.8324 230.649C64.8324 230.649 64.8324 230.649 64.8324 230.649L72.8542 206.585L72.8653 206.552L72.8653 206.511L72.8653 201.976C72.8653 183.129 77.6349 167.819 85.4663 158.423C93.2978 149.027 104.18 145.556 116.409 150.341L116.41 150.341C126.036 154.08 135.541 162.498 143.534 174.384C151.529 186.272 157.592 201.004 160.828 216.43C164.064 231.857 164.302 247.159 161.507 260.1C158.711 273.04 153.031 282.933 145.303 288.341Z" stroke="url(#paint7_linear_9_768)" stroke-opacity="0.1" stroke-width="0.49595"/>
</g>
<g filter="url(#filter4_i_9_768)">
<path d="M112.778 240.386C112.995 240.805 113.168 241.268 113.288 241.747C113.407 242.226 113.47 242.712 113.472 243.177C113.475 243.641 113.417 244.075 113.303 244.452C113.189 244.829 113.02 245.143 112.806 245.375C112.592 245.606 112.338 245.751 112.059 245.801C111.779 245.851 111.48 245.805 111.178 245.665C110.875 245.525 110.577 245.295 110.299 244.988C110.022 244.68 109.771 244.302 109.561 243.874C104.868 234.57 102.231 223.625 102.231 213.447C102.231 203.27 104.868 194.692 109.561 189.603C109.771 189.364 110.022 189.211 110.299 189.153C110.577 189.095 110.875 189.132 111.178 189.264C111.48 189.396 111.779 189.618 112.059 189.919C112.338 190.22 112.592 190.593 112.806 191.017C113.02 191.44 113.189 191.906 113.303 192.386C113.417 192.866 113.475 193.351 113.472 193.813C113.47 194.275 113.407 194.705 113.288 195.077C113.168 195.449 112.995 195.756 112.778 195.981C110.876 198.042 109.368 200.827 108.339 204.174C107.31 207.522 106.781 211.367 106.781 215.49C106.781 219.613 107.31 223.934 108.339 228.206C109.368 232.478 110.876 236.616 112.778 240.386ZM144.952 259.766C144.522 260.209 143.948 260.303 143.351 260.027C142.755 259.751 142.184 259.128 141.762 258.292C141.341 257.456 141.101 256.473 141.096 255.556C141.091 254.639 141.32 253.861 141.735 253.389C143.636 251.327 145.144 248.543 146.173 245.195C147.202 241.848 147.732 238.003 147.732 233.879C147.732 229.756 147.202 225.435 146.173 221.163C145.144 216.892 143.636 212.753 141.735 208.984C141.517 208.564 141.344 208.101 141.225 207.622C141.106 207.143 141.043 206.657 141.04 206.193C141.038 205.728 141.095 205.295 141.209 204.917C141.324 204.54 141.493 204.226 141.706 203.995C141.92 203.763 142.174 203.618 142.454 203.568C142.733 203.518 143.033 203.565 143.335 203.704C143.637 203.844 143.935 204.074 144.213 204.382C144.491 204.689 144.742 205.068 144.952 205.495C149.644 214.799 152.281 225.744 152.281 235.922C152.281 246.1 149.644 254.677 144.952 259.766Z" fill="white" fill-opacity="0.16"/>
</g>
<g filter="url(#filter5_i_9_768)">
<path d="M99.9492 303.135L130.091 316.67L129.525 242.803C132.287 243.179 134.741 241.874 136.412 239.143C138.083 236.411 138.851 232.447 138.567 228.019C138.284 223.591 136.969 219.014 134.878 215.176C132.787 211.338 130.069 208.512 127.25 207.246C124.431 205.98 121.712 206.365 119.621 208.325C117.53 210.285 116.215 213.681 115.932 217.855C115.649 222.028 116.417 226.682 118.088 230.914C119.758 235.146 122.213 238.655 124.975 240.76L124.975 275.996C124.967 286.167 122.328 294.736 117.636 299.824C112.945 304.912 106.584 306.102 99.9492 303.135Z" fill="white" fill-opacity="0.16"/>
</g>
</g>
<path d="M57.0658 314.157L55.8761 313.47L59.317 304.636L60.4884 305.312L63.9293 318.119L62.7396 317.432L59.9393 306.707L59.8661 306.665L57.0658 314.157ZM57.505 310.183L62.3004 312.952L62.3004 314.114L57.505 311.346L57.505 310.183ZM69.6718 318.117L69.6718 313.319L70.7517 313.943L70.7517 322.058L69.6718 321.435L69.6718 320.061L69.5986 320.019C69.4339 320.336 69.1776 320.538 68.8299 320.626C68.4821 320.711 68.0429 320.6 67.5121 320.293C67.0728 320.04 66.6823 319.703 66.3407 319.284C65.999 318.862 65.7306 318.368 65.5354 317.805C65.3401 317.238 65.2425 316.609 65.2425 315.919L65.2425 310.762L66.3224 311.385L66.3224 316.458C66.3224 317.049 66.4658 317.604 66.7525 318.122C67.0423 318.641 67.4114 319.031 67.8598 319.29C68.1283 319.445 68.4013 319.523 68.6789 319.525C68.9595 319.528 69.1944 319.421 69.3835 319.202C69.5757 318.986 69.6718 318.624 69.6718 318.117ZM75.7861 316.849L75.7861 317.906L72.1438 315.803L72.1438 314.746L75.7861 316.849ZM73.2054 313.415L74.2852 314.038L74.2852 321.774C74.2852 322.126 74.3295 322.415 74.4179 322.643C74.5095 322.868 74.6254 323.051 74.7657 323.192C74.9091 323.331 75.0601 323.447 75.2187 323.538C75.3377 323.607 75.4353 323.656 75.5115 323.686C75.5878 323.713 75.6488 323.734 75.6946 323.75L75.9142 324.996C75.841 324.986 75.7388 324.959 75.6076 324.915C75.4765 324.874 75.3102 324.796 75.1089 324.679C74.8038 324.503 74.5049 324.255 74.212 323.934C73.9222 323.616 73.6813 323.246 73.4891 322.825C73.2999 322.406 73.2054 321.96 73.2054 321.488L73.2054 313.415ZM80.1902 327.677C79.5557 327.31 78.999 326.814 78.5201 326.189C78.0442 325.566 77.672 324.863 77.4036 324.081C77.1382 323.301 77.0055 322.492 77.0055 321.653C77.0055 320.808 77.1382 320.147 77.4036 319.669C77.672 319.194 78.0442 318.919 78.5201 318.845C78.999 318.773 79.5557 318.92 80.1902 319.286C80.8247 319.653 81.3799 320.148 81.8557 320.771C82.3347 321.396 82.7068 322.101 82.9722 322.884C83.2406 323.67 83.3749 324.485 83.3749 325.331C83.3749 326.169 83.2406 326.824 82.9722 327.296C82.7068 327.77 82.3347 328.043 81.8557 328.115C81.3799 328.189 80.8247 328.043 80.1902 327.677ZM80.1902 326.556C80.6722 326.835 81.0687 326.921 81.3799 326.815C81.691 326.71 81.9213 326.468 82.0708 326.089C82.2203 325.71 82.295 325.25 82.295 324.707C82.295 324.165 82.2203 323.616 82.0708 323.061C81.9213 322.507 81.691 321.995 81.3799 321.527C81.0687 321.058 80.6722 320.685 80.1902 320.406C79.7082 320.128 79.3116 320.044 79.0005 320.153C78.6894 320.262 78.459 320.508 78.3096 320.89C78.1601 321.272 78.0854 321.734 78.0854 322.277C78.0854 322.819 78.1601 323.366 78.3096 323.917C78.459 324.469 78.6894 324.977 79.0005 325.442C79.3116 325.907 79.7082 326.278 80.1902 326.556ZM85.0233 330.298L85.0233 322.182L86.0665 322.785L86.0665 324.053L86.158 324.106C86.3045 323.757 86.5409 323.557 86.8673 323.506C87.1937 323.451 87.5856 323.556 88.0432 323.82C88.5069 324.088 88.8928 324.432 89.2009 324.853C89.512 325.272 89.7545 325.749 89.9284 326.282L90.0016 326.325C90.1816 326.009 90.4516 325.832 90.8115 325.794C91.1715 325.751 91.6031 325.876 92.1064 326.166C92.7348 326.529 93.2488 327.053 93.6484 327.738C94.0481 328.42 94.2479 329.238 94.2479 330.192L94.2479 335.624L93.168 335L93.168 329.569C93.168 328.97 93.0262 328.46 92.7425 328.039C92.4588 327.618 92.1247 327.297 91.7404 327.075C91.2462 326.79 90.8634 326.741 90.5919 326.93C90.3204 327.115 90.1846 327.469 90.1846 327.994L90.1846 333.278L89.0865 332.644L89.0865 327.085C89.0865 326.624 88.9568 326.178 88.6975 325.746C88.4383 325.311 88.1042 324.976 87.6955 324.74C87.4148 324.578 87.1525 324.512 86.9084 324.544C86.6675 324.578 86.4722 324.704 86.3228 324.925C86.1763 325.143 86.1031 325.451 86.1031 325.849L86.1031 330.921L85.0233 330.298ZM98.2905 338.148C97.8451 337.891 97.4409 337.561 97.0779 337.157C96.7149 336.75 96.4267 336.3 96.2131 335.807C95.9996 335.311 95.8928 334.798 95.8928 334.27C95.8928 333.805 95.9721 333.474 96.1308 333.276C96.2894 333.076 96.5014 332.969 96.7668 332.957C97.0322 332.945 97.325 332.99 97.6453 333.094C97.9687 333.196 98.2935 333.317 98.6199 333.456C99.047 333.639 99.3932 333.792 99.6586 333.913C99.9271 334.033 100.122 334.088 100.244 334.077C100.369 334.068 100.432 333.963 100.432 333.763L100.432 333.72C100.432 333.199 100.308 332.723 100.061 332.291C99.8172 331.861 99.4466 331.503 98.9494 331.216C98.4339 330.918 98.0297 330.815 97.7368 330.907C97.444 330.998 97.2381 331.158 97.1191 331.385L96.0942 330.371C96.2772 329.983 96.5212 329.74 96.8263 329.641C97.1344 329.541 97.4699 329.541 97.8329 329.641C98.199 329.74 98.5589 329.891 98.9128 330.096C99.1385 330.226 99.3978 330.408 99.6907 330.64C99.9865 330.871 100.272 331.16 100.546 331.509C100.824 331.86 101.054 332.28 101.237 332.769C101.42 333.259 101.512 333.826 101.512 334.471L101.512 339.818L100.432 339.194L100.432 338.095L100.377 338.063C100.304 338.197 100.182 338.315 100.011 338.417C99.8401 338.52 99.6129 338.559 99.3292 338.536C99.0455 338.513 98.6992 338.384 98.2905 338.148ZM98.4552 337.123C98.8823 337.369 99.2422 337.48 99.5351 337.456C99.831 337.433 100.054 337.311 100.203 337.091C100.356 336.873 100.432 336.595 100.432 336.256L100.432 335.115C100.386 335.152 100.285 335.152 100.13 335.115C99.9774 335.076 99.8005 335.018 99.5991 334.941C99.4009 334.862 99.2072 334.781 99.018 334.7C98.8319 334.618 98.6809 334.552 98.565 334.502C98.2844 334.383 98.022 334.3 97.778 334.254C97.537 334.206 97.3418 334.233 97.1923 334.333C97.0459 334.432 96.9727 334.64 96.9727 334.957C96.9727 335.39 97.1115 335.798 97.3891 336.18C97.6697 336.56 98.0251 336.875 98.4552 337.123ZM106.539 334.605L106.539 335.661L102.897 333.558L102.897 332.502L106.539 334.605ZM103.959 331.17L105.038 331.794L105.038 339.529C105.038 339.881 105.083 340.171 105.171 340.398C105.263 340.623 105.379 340.807 105.519 340.948C105.662 341.087 105.813 341.202 105.972 341.294C106.091 341.362 106.189 341.412 106.265 341.442C106.341 341.468 106.402 341.489 106.448 341.505L106.667 342.752C106.594 342.741 106.492 342.714 106.361 342.67C106.23 342.629 106.063 342.551 105.862 342.435C105.557 342.259 105.258 342.01 104.965 341.69C104.675 341.371 104.435 341.001 104.242 340.58C104.053 340.161 103.959 339.716 103.959 339.244L103.959 331.17ZM111.035 345.485C110.358 345.094 109.774 344.584 109.282 343.955C108.794 343.325 108.418 342.621 108.152 341.844C107.89 341.066 107.759 340.261 107.759 339.43C107.759 338.599 107.89 337.942 108.152 337.459C108.418 336.975 108.787 336.691 109.26 336.608C109.735 336.524 110.291 336.665 110.925 337.031C111.291 337.242 111.653 337.522 112.01 337.869C112.366 338.216 112.691 338.632 112.984 339.118C113.277 339.601 113.51 340.151 113.684 340.769C113.858 341.387 113.945 342.075 113.945 342.832L113.945 343.361L108.527 340.233L108.527 339.155L112.847 341.649C112.847 341.191 112.768 340.737 112.609 340.286C112.453 339.837 112.231 339.425 111.941 339.049C111.654 338.676 111.316 338.377 110.925 338.151C110.495 337.903 110.123 337.811 109.809 337.876C109.498 337.94 109.258 338.119 109.09 338.413C108.922 338.707 108.839 339.078 108.839 339.525L108.839 340.244C108.839 340.856 108.93 341.429 109.113 341.961C109.299 342.491 109.557 342.962 109.886 343.374C110.216 343.783 110.599 344.113 111.035 344.365C111.319 344.528 111.575 344.631 111.804 344.671C112.035 344.71 112.235 344.684 112.403 344.595C112.571 344.501 112.7 344.34 112.792 344.111L113.835 345.052C113.725 345.397 113.541 345.649 113.282 345.81C113.022 345.966 112.702 346.021 112.321 345.974C111.939 345.922 111.511 345.76 111.035 345.485ZM119.742 350.343L118.553 349.656L121.994 340.822L123.165 341.498L126.606 354.306L125.416 353.619L122.616 342.893L122.543 342.851L119.742 350.343ZM120.182 346.37L124.977 349.138L124.977 350.301L120.182 347.532L120.182 346.37ZM130.756 359.914C130.235 359.613 129.786 359.277 129.411 358.905C129.036 358.537 128.723 358.156 128.473 357.761C128.226 357.372 128.029 356.994 127.883 356.628L128.743 356.427C128.841 356.631 128.964 356.872 129.114 357.148C129.263 357.428 129.467 357.714 129.727 358.004C129.989 358.3 130.332 358.57 130.756 358.815C131.324 359.143 131.792 359.255 132.161 359.151C132.53 359.047 132.715 358.657 132.715 357.98L132.715 356.332L132.623 356.279C132.544 356.381 132.431 356.499 132.284 356.633C132.141 356.765 131.934 356.837 131.662 356.85C131.394 356.86 131.031 356.734 130.573 356.469C130.006 356.142 129.496 355.693 129.045 355.122C128.596 354.553 128.241 353.897 127.979 353.154C127.719 352.412 127.59 351.619 127.59 350.774C127.59 349.942 127.716 349.292 127.97 348.821C128.223 348.348 128.575 348.072 129.027 347.994C129.478 347.913 130 348.044 130.591 348.385C131.049 348.65 131.412 348.947 131.68 349.278C131.952 349.608 132.159 349.925 132.303 350.229C132.449 350.532 132.562 350.777 132.641 350.964L132.751 351.027L132.751 349.738L133.794 350.34L133.794 358.688C133.794 359.386 133.657 359.874 133.383 360.152C133.111 360.436 132.745 360.546 132.284 360.485C131.827 360.428 131.317 360.238 130.756 359.914ZM130.72 355.434C131.153 355.684 131.519 355.781 131.818 355.724C132.117 355.668 132.344 355.47 132.5 355.13C132.655 354.79 132.733 354.321 132.733 353.722C132.733 353.137 132.657 352.577 132.504 352.042C132.352 351.506 132.126 351.025 131.827 350.599C131.528 350.173 131.159 349.833 130.72 349.58C130.262 349.315 129.881 349.229 129.576 349.321C129.274 349.414 129.046 349.642 128.894 350.005C128.744 350.369 128.67 350.826 128.67 351.376C128.67 351.94 128.746 352.482 128.898 353.003C129.054 353.523 129.283 353.993 129.585 354.414C129.89 354.833 130.268 355.173 130.72 355.434ZM138.718 361.468C138.041 361.077 137.457 360.567 136.965 359.938C136.477 359.307 136.101 358.604 135.835 357.827C135.573 357.049 135.442 356.244 135.442 355.413C135.442 354.581 135.573 353.924 135.835 353.442C136.101 352.958 136.47 352.674 136.943 352.591C137.418 352.507 137.974 352.648 138.608 353.014C138.974 353.225 139.336 353.504 139.693 353.851C140.049 354.198 140.374 354.615 140.667 355.101C140.96 355.583 141.193 356.134 141.367 356.752C141.541 357.37 141.628 358.058 141.628 358.815L141.628 359.344L136.21 356.216L136.21 355.138L140.53 357.632C140.53 357.174 140.451 356.719 140.292 356.269C140.136 355.819 139.914 355.407 139.624 355.032C139.337 354.659 138.999 354.359 138.608 354.134C138.178 353.886 137.806 353.794 137.492 353.859C137.18 353.923 136.941 354.101 136.773 354.396C136.605 354.69 136.522 355.06 136.522 355.508L136.522 356.226C136.522 356.839 136.613 357.412 136.796 357.943C136.982 358.474 137.24 358.945 137.569 359.357C137.899 359.765 138.282 360.096 138.718 360.347C139.002 360.511 139.258 360.613 139.487 360.654C139.718 360.693 139.918 360.667 140.086 360.577C140.254 360.484 140.383 360.323 140.475 360.094L141.518 361.034C141.408 361.38 141.224 361.632 140.965 361.793C140.705 361.949 140.385 362.004 140.004 361.956C139.622 361.905 139.194 361.742 138.718 361.468ZM144.351 359.669L144.351 364.551L143.271 363.927L143.271 355.812L144.314 356.414L144.314 357.682L144.405 357.735C144.57 357.418 144.82 357.231 145.156 357.175C145.491 357.115 145.925 357.238 146.455 357.545C146.931 357.819 147.348 358.172 147.705 358.604C148.061 359.032 148.339 359.53 148.537 360.099C148.736 360.664 148.835 361.292 148.835 361.983L148.835 367.139L147.755 366.516L147.755 361.444C147.755 360.806 147.612 360.227 147.325 359.706C147.038 359.181 146.645 358.774 146.144 358.485C145.8 358.286 145.491 358.194 145.22 358.21C144.952 358.228 144.74 358.357 144.584 358.599C144.428 358.84 144.351 359.197 144.351 359.669ZM153.865 361.928L153.865 362.985L150.222 360.882L150.222 359.825L153.865 361.928ZM151.284 358.494L152.364 359.117L152.364 366.852C152.364 367.204 152.408 367.494 152.496 367.721C152.588 367.947 152.704 368.13 152.844 368.271C152.988 368.41 153.139 368.525 153.297 368.617C153.416 368.686 153.514 368.735 153.59 368.765C153.666 368.791 153.727 368.812 153.773 368.828L153.993 370.075C153.92 370.065 153.817 370.037 153.686 369.993C153.555 369.953 153.389 369.874 153.187 369.758C152.882 369.582 152.583 369.334 152.291 369.013C152.001 368.694 151.76 368.325 151.568 367.904C151.378 367.484 151.284 367.039 151.284 366.567L151.284 358.494Z" fill="white"/>
</g>
<defs>
<filter id="filter0_bi_9_768" x="202.844" y="108.339" width="54.5451" height="372.954" filterUnits="userSpaceOnUse" color-interpolation-filters="sRGB">
<feFlood flood-opacity="0" result="BackgroundImageFix"/>
<feGaussianBlur in="BackgroundImageFix" stdDeviation="10.4149"/>
<feComposite in2="SourceAlpha" operator="in" result="effect1_backgroundBlur_9_768"/>
<feBlend mode="normal" in="SourceGraphic" in2="effect1_backgroundBlur_9_768" result="shape"/>
<feColorMatrix in="SourceAlpha" type="matrix" values="0 0 0 0 0 0 0 0 0 0 0 0 0 0 0 0 0 0 127 0" result="hardAlpha"/>
<feOffset dx="-2.47975" dy="-2.47975"/>
<feGaussianBlur stdDeviation="61.9937"/>
<feComposite in2="hardAlpha" operator="arithmetic" k2="-1" k3="1"/>
<feColorMatrix type="matrix" values="0 0 0 0 1 0 0 0 0 1 0 0 0 0 1 0 0 0 0.02 0"/>
<feBlend mode="normal" in2="shape" result="effect2_innerShadow_9_768"/>
</filter>
<filter id="filter1_bi_9_768" x="-20.8299" y="-20.6082" width="278.213" height="178.234" filterUnits="userSpaceOnUse" color-interpolation-filters="sRGB">
<feFlood flood-opacity="0" result="BackgroundImageFix"/>
<feGaussianBlur in="BackgroundImageFix" stdDeviation="10.4149"/>
<feComposite in2="SourceAlpha" operator="in" result="effect1_backgroundBlur_9_768"/>
<feBlend mode="normal" in="SourceGraphic" in2="effect1_backgroundBlur_9_768" result="shape"/>
<feColorMatrix in="SourceAlpha" type="matrix" values="0 0 0 0 0 0 0 0 0 0 0 0 0 0 0 0 0 0 127 0" result="hardAlpha"/>
<feOffset dx="-2.47975" dy="-2.47975"/>
<feGaussianBlur stdDeviation="61.9937"/>
<feComposite in2="hardAlpha" operator="arithmetic" k2="-1" k3="1"/>
<feColorMatrix type="matrix" values="0 0 0 0 1 0 0 0 0 1 0 0 0 0 1 0 0 0 0.02 0"/>
<feBlend mode="normal" in2="shape" result="effect2_innerShadow_9_768"/>
</filter>
<filter id="filter2_bi_9_768" x="-20.8299" y="-13.169" width="265.432" height="494.71" filterUnits="userSpaceOnUse" color-interpolation-filters="sRGB">
<feFlood flood-opacity="0" result="BackgroundImageFix"/>
<feGaussianBlur in="BackgroundImageFix" stdDeviation="10.4149"/>
<feComposite in2="SourceAlpha" operator="in" result="effect1_backgroundBlur_9_768"/>
<feBlend mode="normal" in="SourceGraphic" in2="effect1_backgroundBlur_9_768" result="shape"/>
<feColorMatrix in="SourceAlpha" type="matrix" values="0 0 0 0 0 0 0 0 0 0 0 0 0 0 0 0 0 0 127 0" result="hardAlpha"/>
<feOffset dx="-2.47975" dy="-2.47975"/>
<feGaussianBlur stdDeviation="61.9937"/>
<feComposite in2="hardAlpha" operator="arithmetic" k2="-1" k3="1"/>
<feColorMatrix type="matrix" values="0 0 0 0 1 0 0 0 0 1 0 0 0 0 1 0 0 0 0.02 0"/>
<feBlend mode="normal" in2="shape" result="effect2_innerShadow_9_768"/>
</filter>
<filter id="filter3_bi_9_768" x="61.2388" y="144.935" width="105.417" height="179.882" filterUnits="userSpaceOnUse" color-interpolation-filters="sRGB">
<feFlood flood-opacity="0" result="BackgroundImageFix"/>
<feGaussianBlur in="BackgroundImageFix" stdDeviation="1.5"/>
<feComposite in2="SourceAlpha" operator="in" result="effect1_backgroundBlur_9_768"/>
<feBlend mode="normal" in="SourceGraphic" in2="effect1_backgroundBlur_9_768" result="shape"/>
<feColorMatrix in="SourceAlpha" type="matrix" values="0 0 0 0 0 0 0 0 0 0 0 0 0 0 0 0 0 0 127 0" result="hardAlpha"/>
<feOffset dy="0.5"/>
<feGaussianBlur stdDeviation="1"/>
<feComposite in2="hardAlpha" operator="arithmetic" k2="-1" k3="1"/>
<feColorMatrix type="matrix" values="0 0 0 0 1 0 0 0 0 1 0 0 0 0 1 0 0 0 0.4 0"/>
<feBlend mode="normal" in2="shape" result="effect2_innerShadow_9_768"/>
</filter>
<filter id="filter4_i_9_768" x="102.231" y="189.126" width="50.0496" height="71.5564" filterUnits="userSpaceOnUse" color-interpolation-filters="sRGB">
<feFlood flood-opacity="0" result="BackgroundImageFix"/>
<feBlend mode="normal" in="SourceGraphic" in2="BackgroundImageFix" result="shape"/>
<feColorMatrix in="SourceAlpha" type="matrix" values="0 0 0 0 0 0 0 0 0 0 0 0 0 0 0 0 0 0 127 0" result="hardAlpha"/>
<feOffset dy="0.5"/>
<feGaussianBlur stdDeviation="0.25"/>
<feComposite in2="hardAlpha" operator="arithmetic" k2="-1" k3="1"/>
<feColorMatrix type="matrix" values="0 0 0 0 1 0 0 0 0 1 0 0 0 0 1 0 0 0 0.4 0"/>
<feBlend mode="normal" in2="shape" result="effect1_innerShadow_9_768"/>
</filter>
<filter id="filter5_i_9_768" x="99.9492" y="206.514" width="38.6758" height="110.657" filterUnits="userSpaceOnUse" color-interpolation-filters="sRGB">
<feFlood flood-opacity="0" result="BackgroundImageFix"/>
<feBlend mode="normal" in="SourceGraphic" in2="BackgroundImageFix" result="shape"/>
<feColorMatrix in="SourceAlpha" type="matrix" values="0 0 0 0 0 0 0 0 0 0 0 0 0 0 0 0 0 0 127 0" result="hardAlpha"/>
<feOffset dy="0.5"/>
<feGaussianBlur stdDeviation="0.25"/>
<feComposite in2="hardAlpha" operator="arithmetic" k2="-1" k3="1"/>
<feColorMatrix type="matrix" values="0 0 0 0 1 0 0 0 0 1 0 0 0 0 1 0 0 0 0.4 0"/>
<feBlend mode="normal" in2="shape" result="effect1_innerShadow_9_768"/>
</filter>
<radialGradient id="paint0_radial_9_768" cx="0" cy="0" r="1" gradientUnits="userSpaceOnUse" gradientTransform="rotate(87.3696) scale(324.197 20.6545)">
<stop stop-color="white" stop-opacity="0.4"/>
<stop offset="1" stop-color="white" stop-opacity="0"/>
</radialGradient>
<radialGradient id="paint1_radial_9_768" cx="0" cy="0" r="1" gradientUnits="userSpaceOnUse" gradientTransform="rotate(86.7029) scale(258.697 20.6421)">
<stop stop-color="white" stop-opacity="0.4"/>
<stop offset="1" stop-color="white" stop-opacity="0"/>
</radialGradient>
<radialGradient id="paint2_radial_9_768" cx="0" cy="0" r="1" gradientUnits="userSpaceOnUse" gradientTransform="rotate(51.4152) scale(414.304 280.687)">
<stop stop-color="white" stop-opacity="0.4"/>
<stop offset="1" stop-color="white" stop-opacity="0"/>
</radialGradient>
<linearGradient id="paint3_linear_9_768" x1="120.426" y1="211.155" x2="138.343" y2="214.36" gradientUnits="userSpaceOnUse">
<stop stop-color="#75A5FF"/>
<stop offset="0.703125" stop-color="#2339FF"/>
</linearGradient>
<linearGradient id="paint4_linear_9_768" x1="102.23" y1="185.247" x2="167.925" y2="201.716" gradientUnits="userSpaceOnUse">
<stop stop-color="#CADCFF"/>
<stop offset="0.703125" stop-color="#C6CCFF"/>
</linearGradient>
<linearGradient id="paint5_linear_9_768" x1="99.9502" y1="194.987" x2="150.059" y2="199.73" gradientUnits="userSpaceOnUse">
<stop stop-color="#E1EBFF"/>
<stop offset="0.703125" stop-color="#383838"/>
</linearGradient>
<linearGradient id="paint6_linear_9_768" x1="64.2388" y1="126.612" x2="194.639" y2="148.682" gradientUnits="userSpaceOnUse">
<stop stop-color="#83E9FF" stop-opacity="0.66"/>
<stop offset="0.670781" stop-color="#85A0FF" stop-opacity="0.88"/>
</linearGradient>
<linearGradient id="paint7_linear_9_768" x1="67.3455" y1="135.301" x2="163.656" y2="135.301" gradientUnits="userSpaceOnUse">
<stop stop-color="#3CDEB6"/>
<stop offset="0.65625" stop-color="#364AFF"/>
</linearGradient>
<clipPath id="clip0_9_768">
<rect width="121.587" height="160.486" fill="white" transform="matrix(0.860729 0.38651 -2.20305e-08 1 61.6196 125.436)"/>
</clipPath>
</defs>
</svg>
