<svg width="22" height="22" viewBox="0 0 22 22" fill="none" xmlns="http://www.w3.org/2000/svg">
<path d="M21.8078 11.6833C21.5819 10.8345 21.1422 10.0531 20.5308 9.42015C21.0462 7.99909 20.8974 6.41878 20.129 5.11513C18.9426 3.13266 16.6051 2.14345 14.35 2.67247C13.0933 1.21092 11.1399 0.553694 9.25556 0.953157C7.36982 1.35127 5.85067 2.74399 5.29605 4.58476C3.78637 4.84927 2.46743 5.76156 1.69095 7.0814C0.522171 9.06657 0.815719 11.5862 2.41468 13.2474C1.90063 14.6698 2.04808 16.2502 2.81644 17.5525C3.99875 19.5444 6.34037 20.5363 8.59542 19.9924C9.84672 21.454 11.8001 22.1206 13.6858 21.7266C15.5743 21.3325 17.0948 19.9425 17.6535 18.1031C19.1645 17.8399 20.4834 16.9249 21.2599 15.6064C21.9647 14.4269 22.1622 13.0113 21.8078 11.6833ZM17.7008 16.6672V11.4539C17.7008 11.2312 17.6494 11.0328 17.4614 10.933L12.6659 8.22986L14.3974 7.24874L18.4557 9.55105C19.3715 10.0639 20.0411 10.9276 20.3103 11.9424C20.5808 12.937 20.4388 14.0005 19.9112 14.8898C19.4892 15.6159 18.8452 16.1854 18.0755 16.5174C17.9538 16.57 17.8266 16.6199 17.7008 16.6672ZM5.25005 6.01527V11.215C5.25005 11.4256 5.28928 11.6428 5.48408 11.736L10.2796 14.4391L8.54807 15.4202L4.47222 13.1138C3.5564 12.5997 2.88679 11.736 2.61624 10.7211C2.34569 9.72784 2.48908 8.66306 3.01395 7.77641C3.37513 7.16237 3.89459 6.6617 4.5128 6.32296C4.759 6.18801 4.98491 6.09759 5.25005 6.01527ZM14.7139 6.03551C14.5286 5.93025 14.3054 5.93025 14.1201 6.03551L9.25827 8.80341V6.7953L13.3909 4.49299C15.2956 3.41201 17.717 4.04899 18.8385 5.92755C19.2335 6.60232 19.412 7.3756 19.3552 8.14619C19.3431 8.30543 19.3228 8.47547 19.2971 8.63202L14.7139 6.03551ZM11.4727 8.94241L13.6885 10.1961V12.5052L11.4727 13.7265L9.26232 12.4728V10.1759L11.4727 8.94241ZM8.37086 5.9235C8.17877 6.02067 8.11654 6.25953 8.11654 6.44577V11.8129L6.37149 10.8561V6.3594C6.37284 6.32566 6.37284 6.29732 6.37149 6.26493C6.38772 4.73051 7.29001 3.33914 8.68876 2.69676C9.94952 2.11511 11.4132 2.23522 12.5563 2.98691C12.7159 3.09217 12.8701 3.21093 13.0176 3.33239L8.37086 5.9235ZM3.65515 14.045L8.23152 16.6388C8.41685 16.7427 8.64006 16.7427 8.82538 16.6388L13.6926 13.8777V15.8898L9.55452 18.1759C7.64984 19.2569 5.22976 18.6199 4.10833 16.7414C3.67409 16.0018 3.50094 15.1422 3.61322 14.2974C3.62539 14.2124 3.64027 14.1287 3.65515 14.045ZM14.58 16.7481C14.7721 16.651 14.8289 16.4404 14.8289 16.2232V10.8561L16.5699 11.8129V16.3109C16.5672 16.3419 16.5672 16.3716 16.5699 16.404C16.5496 17.9384 15.6514 19.3244 14.2553 19.9668C12.9675 20.5592 11.4741 20.4256 10.3202 19.6348C10.189 19.5457 10.0577 19.4418 9.92788 19.3365L14.58 16.7481Z" fill="white"/>
</svg>
