<svg width="13" height="16" viewBox="0 0 13 16" fill="none" xmlns="http://www.w3.org/2000/svg">
<g filter="url(#filter0_b_55_399)">
<path d="M8.24105 1.33838H2.57807C2.22468 1.33838 1.88576 1.47876 1.63588 1.72865C1.38599 1.97853 1.24561 2.31745 1.24561 2.67084V13.3306C1.24561 13.684 1.38599 14.0229 1.63588 14.2728C1.88576 14.5226 2.22468 14.663 2.57807 14.663H10.5729C10.9263 14.663 11.2652 14.5226 11.5151 14.2728C11.7649 14.0229 11.9053 13.684 11.9053 13.3306V5.00266L8.24105 1.33838Z" fill="white" fill-opacity="0.17"/>
<path d="M7.90793 1.33838V5.33577H11.9053" fill="white" fill-opacity="0.17"/>
<path d="M7.90793 1.33838V5.33577H11.9053M8.24105 1.33838H2.57807C2.22468 1.33838 1.88576 1.47876 1.63588 1.72865C1.38599 1.97853 1.24561 2.31745 1.24561 2.67084V13.3306C1.24561 13.684 1.38599 14.0229 1.63588 14.2728C1.88576 14.5226 2.22468 14.663 2.57807 14.663H10.5729C10.9263 14.663 11.2652 14.5226 11.5151 14.2728C11.7649 14.0229 11.9053 13.684 11.9053 13.3306V5.00266L8.24105 1.33838Z" stroke="url(#paint0_linear_55_399)" stroke-opacity="0.74" stroke-width="2" stroke-linecap="round" stroke-linejoin="round"/>
</g>
<defs>
<filter id="filter0_b_55_399" x="-14.1544" y="-14.0616" width="41.4597" height="44.1247" filterUnits="userSpaceOnUse" color-interpolation-filters="sRGB">
<feFlood flood-opacity="0" result="BackgroundImageFix"/>
<feGaussianBlur in="BackgroundImageFix" stdDeviation="7.2"/>
<feComposite in2="SourceAlpha" operator="in" result="effect1_backgroundBlur_55_399"/>
<feBlend mode="normal" in="SourceGraphic" in2="effect1_backgroundBlur_55_399" result="shape"/>
</filter>
<linearGradient id="paint0_linear_55_399" x1="0.745606" y1="1.33838" x2="11.2456" y2="14.8384" gradientUnits="userSpaceOnUse">
<stop stop-color="#4FABFF"/>
<stop offset="0.4251" stop-color="#A6C0D9"/>
<stop offset="1" stop-color="#7C9CBF"/>
</linearGradient>
</defs>
</svg>
