<svg width="25" height="20" viewBox="0 0 25 20" fill="none" xmlns="http://www.w3.org/2000/svg">
<path d="M20.549 2.22781C18.9955 1.50093 17.3343 0.972672 15.5976 0.671875C15.3844 1.05749 15.1352 1.57614 14.9634 1.98873C13.1172 1.71109 11.2881 1.71109 9.47591 1.98873C9.30414 1.57614 9.0493 1.05749 8.83411 0.671875C7.09556 0.972672 5.43251 1.50287 3.87894 2.23166C0.745393 6.96686 -0.104061 11.5845 0.320667 16.1365C2.399 17.6885 4.41316 18.6313 6.39332 19.2483C6.88224 18.5754 7.31828 17.8601 7.69393 17.1063C6.9785 16.8344 6.29328 16.499 5.64582 16.1095C5.81759 15.9822 5.98561 15.8492 6.14793 15.7123C10.0969 17.5594 14.3876 17.5594 18.2895 15.7123C18.4537 15.8492 18.6217 15.9822 18.7916 16.1095C18.1422 16.5009 17.4551 16.8363 16.7397 17.1082C17.1153 17.8601 17.5495 18.5774 18.0403 19.2502C20.0224 18.6333 22.0384 17.6905 24.1167 16.1365C24.6151 10.8595 23.2654 6.28434 20.549 2.22781ZM8.23193 13.337C7.04647 13.337 6.0743 12.2303 6.0743 10.8826C6.0743 9.53497 7.02571 8.42636 8.23193 8.42636C9.43817 8.42636 10.4103 9.53303 10.3895 10.8826C10.3914 12.2303 9.43817 13.337 8.23193 13.337ZM16.2055 13.337C15.02 13.337 14.0479 12.2303 14.0479 10.8826C14.0479 9.53497 14.9992 8.42636 16.2055 8.42636C17.4117 8.42636 18.3839 9.53303 18.3631 10.8826C18.3631 12.2303 17.4117 13.337 16.2055 13.337Z" fill="#9CA3AF"/>
</svg>
