<svg width="353" height="790" viewBox="0 0 353 790" fill="none" xmlns="http://www.w3.org/2000/svg">
<g filter="url(#filter0_bi_9_723)">
<rect width="258.39" height="323.855" transform="matrix(0.866025 0.5 -2.20305e-08 1 128.665 267.508)" fill="url(#paint0_radial_9_723)"/>
</g>
<g clip-path="url(#clip0_9_723)">
<path d="M246.623 470.929C259.839 471.798 270.552 461.352 270.552 447.596C270.552 433.841 259.839 421.986 246.623 421.117C233.407 420.248 222.694 430.695 222.694 444.45C222.694 458.205 233.407 470.061 246.623 470.929Z" fill="url(#paint1_linear_9_723)"/>
<path d="M246.623 506.51C254.175 507.007 260.297 501.037 260.297 493.177C260.297 485.317 254.175 478.542 246.623 478.046C239.071 477.549 232.949 483.519 232.949 491.379C232.949 499.239 239.071 506.014 246.623 506.51Z" fill="url(#paint2_linear_9_723)"/>
<path d="M246.623 556.323C254.175 556.819 260.297 550.85 260.297 542.989C260.297 535.129 254.175 528.355 246.623 527.858C239.071 527.362 232.949 533.331 232.949 541.191C232.949 549.052 239.071 555.826 246.623 556.323Z" fill="url(#paint3_linear_9_723)"/>
<path d="M209.02 543.176C216.572 543.673 222.694 537.703 222.694 529.843C222.694 521.983 216.572 515.208 209.02 514.712C201.468 514.215 195.346 520.185 195.346 528.045C195.346 535.905 201.468 542.68 209.02 543.176Z" fill="url(#paint4_linear_9_723)"/>
<path d="M284.226 548.12C291.778 548.617 297.9 542.647 297.9 534.787C297.9 526.927 291.778 520.152 284.226 519.656C276.674 519.16 270.552 525.129 270.552 532.989C270.552 540.849 276.674 547.624 284.226 548.12Z" fill="url(#paint5_linear_9_723)"/>
<g filter="url(#filter1_bi_9_723)">
<path d="M280.124 487.364C279.445 487.32 278.781 487.065 278.218 486.634C277.654 486.203 277.216 485.615 276.96 484.944C276.703 484.272 276.639 483.549 276.777 482.866C276.914 482.183 277.246 481.571 277.731 481.109C284.035 475.092 288.356 467.136 290.143 458.256C291.93 449.376 291.102 439.974 287.765 431.249C284.427 422.524 278.732 414.871 271.405 409.265C264.077 403.66 255.45 400.357 246.623 399.776C237.796 399.196 229.168 401.365 221.841 406.007C214.514 410.649 208.818 417.553 205.481 425.839C202.144 434.126 201.316 443.419 203.103 452.534C204.89 461.649 209.211 470.173 215.515 477.018C215.843 477.365 216.105 477.772 216.287 478.216C216.469 478.66 216.567 479.131 216.575 479.603C216.583 480.075 216.5 480.538 216.332 480.965C216.165 481.392 215.915 481.775 215.598 482.091C215.281 482.407 214.902 482.649 214.485 482.805C214.068 482.961 213.619 483.026 213.166 482.998C212.713 482.97 212.264 482.848 211.846 482.639C211.428 482.431 211.048 482.14 210.729 481.785C203.455 473.886 198.47 464.05 196.408 453.533C194.346 443.016 195.301 432.293 199.152 422.732C203.002 413.171 209.574 405.204 218.028 399.848C226.483 394.492 236.438 391.99 246.623 392.659C256.808 393.329 266.763 397.141 275.217 403.608C283.672 410.076 290.243 418.906 294.094 428.974C297.945 439.041 298.9 449.89 296.838 460.136C294.776 470.382 289.79 479.561 282.517 486.504C281.878 487.114 281.019 487.423 280.124 487.364Z" fill="#1D1D1D" fill-opacity="0.05"/>
<path d="M280.124 487.364C279.445 487.32 278.781 487.065 278.218 486.634C277.654 486.203 277.216 485.615 276.96 484.944C276.703 484.272 276.639 483.549 276.777 482.866C276.914 482.183 277.246 481.571 277.731 481.109C284.035 475.092 288.356 467.136 290.143 458.256C291.93 449.376 291.102 439.974 287.765 431.249C284.427 422.524 278.732 414.871 271.405 409.265C264.077 403.66 255.45 400.357 246.623 399.776C237.796 399.196 229.168 401.365 221.841 406.007C214.514 410.649 208.818 417.553 205.481 425.839C202.144 434.126 201.316 443.419 203.103 452.534C204.89 461.649 209.211 470.173 215.515 477.018C215.843 477.365 216.105 477.772 216.287 478.216C216.469 478.66 216.567 479.131 216.575 479.603C216.583 480.075 216.5 480.538 216.332 480.965C216.165 481.392 215.915 481.775 215.598 482.091C215.281 482.407 214.902 482.649 214.485 482.805C214.068 482.961 213.619 483.026 213.166 482.998C212.713 482.97 212.264 482.848 211.846 482.639C211.428 482.431 211.048 482.14 210.729 481.785C203.455 473.886 198.47 464.05 196.408 453.533C194.346 443.016 195.301 432.293 199.152 422.732C203.002 413.171 209.574 405.204 218.028 399.848C226.483 394.492 236.438 391.99 246.623 392.659C256.808 393.329 266.763 397.141 275.217 403.608C283.672 410.076 290.243 418.906 294.094 428.974C297.945 439.041 298.9 449.89 296.838 460.136C294.776 470.382 289.79 479.561 282.517 486.504C281.878 487.114 281.019 487.423 280.124 487.364Z" fill="url(#paint6_linear_9_723)" fill-opacity="0.2"/>
<path d="M215.465 477.068L215.466 477.069C215.787 477.409 216.044 477.807 216.222 478.242C216.4 478.676 216.496 479.138 216.503 479.6C216.511 480.062 216.43 480.515 216.266 480.933C216.102 481.351 215.857 481.726 215.547 482.035C215.236 482.345 214.866 482.582 214.457 482.735C214.049 482.887 213.61 482.951 213.166 482.924C212.723 482.896 212.283 482.776 211.873 482.572C211.464 482.368 211.092 482.084 210.78 481.736L210.779 481.735C203.515 473.847 198.537 464.025 196.478 453.523C194.419 443.02 195.373 432.312 199.218 422.764C203.063 413.217 209.625 405.261 218.068 399.913C226.511 394.564 236.452 392.065 246.623 392.734C256.794 393.402 266.735 397.209 275.177 403.667C283.62 410.126 290.183 418.944 294.028 428.997C297.873 439.051 298.827 449.884 296.768 460.116C294.709 470.348 289.73 479.515 282.467 486.448C281.841 487.045 281 487.347 280.124 487.29C279.459 487.246 278.809 486.997 278.258 486.575C277.706 486.153 277.277 485.577 277.026 484.92C276.774 484.263 276.712 483.555 276.846 482.886C276.981 482.217 277.306 481.618 277.781 481.165C284.095 475.138 288.423 467.17 290.213 458.276C292.003 449.381 291.173 439.964 287.831 431.225C284.488 422.486 278.784 414.82 271.445 409.206C264.105 403.592 255.464 400.283 246.623 399.702C237.781 399.121 229.14 401.293 221.801 405.943C214.462 410.592 208.758 417.507 205.415 425.807C202.072 434.107 201.243 443.415 203.033 452.544C204.823 461.674 209.151 470.211 215.465 477.068Z" stroke="url(#paint7_linear_9_723)" stroke-opacity="0.1" stroke-width="0.148785"/>
</g>
<g filter="url(#filter2_bi_9_723)">
<path d="M246.623 534.974C245.716 534.915 244.847 534.483 244.206 533.773C243.565 533.064 243.205 532.135 243.205 531.192L243.205 502.727C243.205 501.784 243.565 500.902 244.206 500.277C244.847 499.652 245.716 499.334 246.623 499.394C247.53 499.454 248.399 499.886 249.04 500.595C249.681 501.304 250.042 502.233 250.042 503.177L250.042 531.641C250.042 532.585 249.681 533.466 249.04 534.091C248.399 534.716 247.53 535.034 246.623 534.974Z" fill="#1D1D1D" fill-opacity="0.05"/>
<path d="M246.623 534.974C245.716 534.915 244.847 534.483 244.206 533.773C243.565 533.064 243.205 532.135 243.205 531.192L243.205 502.727C243.205 501.784 243.565 500.902 244.206 500.277C244.847 499.652 245.716 499.334 246.623 499.394C247.53 499.454 248.399 499.886 249.04 500.595C249.681 501.304 250.042 502.233 250.042 503.177L250.042 531.641C250.042 532.585 249.681 533.466 249.04 534.091C248.399 534.716 247.53 535.034 246.623 534.974Z" fill="url(#paint8_linear_9_723)" fill-opacity="0.2"/>
<path d="M246.623 534.9C245.735 534.842 244.884 534.419 244.256 533.724C243.629 533.029 243.276 532.12 243.276 531.196L243.276 502.732C243.276 501.808 243.629 500.945 244.256 500.333C244.884 499.721 245.735 499.41 246.623 499.468C247.511 499.527 248.362 499.95 248.99 500.644C249.617 501.339 249.97 502.248 249.97 503.172L249.97 531.636C249.97 532.56 249.617 533.423 248.99 534.035C248.362 534.647 247.511 534.958 246.623 534.9Z" stroke="url(#paint9_linear_9_723)" stroke-opacity="0.1" stroke-width="0.148785"/>
</g>
<g filter="url(#filter3_bi_9_723)">
<path d="M209.02 521.83C208.113 521.77 207.244 521.338 206.603 520.629C205.962 519.92 205.601 518.991 205.601 518.047L205.601 503.815C205.598 503.151 205.773 502.51 206.107 501.966C206.441 501.422 206.921 500.997 207.492 500.737L234.839 488.303C235.651 487.934 236.59 487.927 237.45 488.283C238.311 488.638 239.022 489.327 239.427 490.198C239.832 491.07 239.899 492.052 239.611 492.928C239.324 493.805 238.707 494.504 237.896 494.873L212.438 506.463L212.438 518.497C212.438 519.44 212.078 520.322 211.437 520.947C210.796 521.572 209.926 521.89 209.02 521.83Z" fill="#1D1D1D" fill-opacity="0.05"/>
<path d="M209.02 521.83C208.113 521.77 207.244 521.338 206.603 520.629C205.962 519.92 205.601 518.991 205.601 518.047L205.601 503.815C205.598 503.151 205.773 502.51 206.107 501.966C206.441 501.422 206.921 500.997 207.492 500.737L234.839 488.303C235.651 487.934 236.59 487.927 237.45 488.283C238.311 488.638 239.022 489.327 239.427 490.198C239.832 491.07 239.899 492.052 239.611 492.928C239.324 493.805 238.707 494.504 237.896 494.873L212.438 506.463L212.438 518.497C212.438 519.44 212.078 520.322 211.437 520.947C210.796 521.572 209.926 521.89 209.02 521.83Z" fill="url(#paint10_linear_9_723)" fill-opacity="0.2"/>
<path d="M205.673 503.82L205.673 503.819C205.669 503.169 205.841 502.542 206.168 502.009C206.495 501.477 206.965 501.06 207.524 500.806L207.524 500.806L234.871 488.372C234.871 488.372 234.871 488.371 234.871 488.371C235.666 488.011 236.585 488.004 237.428 488.352C238.27 488.7 238.966 489.374 239.363 490.227C239.76 491.08 239.825 492.042 239.544 492.9C239.262 493.758 238.658 494.443 237.864 494.804L237.864 494.804L212.406 506.395L212.367 506.413L212.367 506.459L212.367 518.492C212.367 519.416 212.014 520.279 211.387 520.891C210.759 521.503 209.908 521.814 209.02 521.756C208.132 521.697 207.281 521.274 206.653 520.58C206.025 519.885 205.673 518.976 205.673 518.052L205.673 503.82Z" stroke="url(#paint11_linear_9_723)" stroke-opacity="0.1" stroke-width="0.148785"/>
</g>
<g filter="url(#filter4_bi_9_723)">
<path d="M284.227 526.773C283.321 526.714 282.451 526.282 281.81 525.572C281.169 524.863 280.809 523.934 280.809 522.991L280.809 510.957L255.352 496.055C254.54 495.58 253.923 494.799 253.636 493.885C253.348 492.97 253.415 491.997 253.82 491.179C254.225 490.361 254.936 489.766 255.797 489.523C256.657 489.281 257.596 489.412 258.408 489.887L285.755 505.917C286.321 506.248 286.797 506.731 287.131 507.312C287.465 507.893 287.643 508.55 287.646 509.208L287.646 523.44C287.646 524.384 287.286 525.265 286.645 525.89C286.003 526.515 285.134 526.833 284.227 526.773Z" fill="#1D1D1D" fill-opacity="0.05"/>
<path d="M284.227 526.773C283.321 526.714 282.451 526.282 281.81 525.572C281.169 524.863 280.809 523.934 280.809 522.991L280.809 510.957L255.352 496.055C254.54 495.58 253.923 494.799 253.636 493.885C253.348 492.97 253.415 491.997 253.82 491.179C254.225 490.361 254.936 489.766 255.797 489.523C256.657 489.281 257.596 489.412 258.408 489.887L285.755 505.917C286.321 506.248 286.797 506.731 287.131 507.312C287.465 507.893 287.643 508.55 287.646 509.208L287.646 523.44C287.646 524.384 287.286 525.265 286.645 525.89C286.003 526.515 285.134 526.833 284.227 526.773Z" fill="url(#paint12_linear_9_723)" fill-opacity="0.2"/>
<path d="M287.574 509.203L287.574 509.204L287.574 523.435C287.574 524.359 287.222 525.222 286.594 525.834C285.966 526.446 285.115 526.757 284.227 526.699C283.34 526.641 282.488 526.218 281.861 525.523C281.233 524.828 280.88 523.919 280.88 522.995L280.88 510.962L280.88 510.916L280.841 510.893L255.383 495.99C255.383 495.99 255.383 495.99 255.383 495.99C254.589 495.525 253.985 494.761 253.703 493.866C253.422 492.97 253.487 492.018 253.884 491.217C254.281 490.416 254.977 489.833 255.819 489.595C256.662 489.358 257.581 489.486 258.376 489.951C258.376 489.951 258.376 489.951 258.376 489.951L285.723 505.981L285.755 505.917M287.574 509.203L287.646 509.208C287.643 508.55 287.465 507.893 287.131 507.312C286.797 506.731 286.321 506.248 285.755 505.917M287.574 509.203C287.571 508.559 287.397 507.916 287.07 507.348C286.743 506.779 286.277 506.306 285.723 505.981L285.755 505.917M287.574 509.203L285.755 505.917" stroke="url(#paint13_linear_9_723)" stroke-opacity="0.1" stroke-width="0.148785"/>
</g>
</g>
<path d="M187.558 563.675C187.112 563.418 186.708 563.087 186.345 562.684C185.982 562.277 185.694 561.827 185.48 561.334C185.267 560.837 185.16 560.325 185.16 559.797C185.16 559.332 185.239 559 185.398 558.803C185.557 558.602 185.769 558.496 186.034 558.484C186.299 558.471 186.592 558.517 186.913 558.621C187.236 558.723 187.561 558.844 187.887 558.983C188.314 559.166 188.661 559.318 188.926 559.44C189.194 559.56 189.39 559.614 189.512 559.604C189.637 559.595 189.699 559.49 189.699 559.289L189.699 559.247C189.699 558.726 189.576 558.249 189.329 557.818C189.085 557.388 188.714 557.03 188.217 556.743C187.701 556.445 187.297 556.342 187.004 556.434C186.711 556.525 186.505 556.684 186.386 556.912L185.361 555.897C185.544 555.51 185.789 555.267 186.094 555.168C186.402 555.068 186.737 555.068 187.1 555.168C187.466 555.267 187.826 555.418 188.18 555.623C188.406 555.753 188.665 555.934 188.958 556.167C189.254 556.397 189.539 556.687 189.814 557.036C190.091 557.386 190.322 557.806 190.505 558.296C190.688 558.786 190.779 559.353 190.779 559.997L190.779 565.344L189.699 564.721L189.699 563.622L189.644 563.59C189.571 563.724 189.449 563.842 189.278 563.944C189.107 564.046 188.88 564.086 188.596 564.063C188.313 564.04 187.967 563.911 187.558 563.675ZM187.723 562.65C188.15 562.896 188.51 563.007 188.802 562.982C189.098 562.96 189.321 562.838 189.47 562.618C189.623 562.4 189.699 562.121 189.699 561.783L189.699 560.642C189.653 560.679 189.553 560.679 189.397 560.642C189.245 560.603 189.068 560.545 188.866 560.468C188.668 560.388 188.474 560.308 188.285 560.227C188.099 560.144 187.948 560.078 187.832 560.029C187.552 559.909 187.289 559.826 187.045 559.781C186.804 559.733 186.609 559.76 186.46 559.86C186.313 559.959 186.24 560.166 186.24 560.483C186.24 560.917 186.379 561.324 186.656 561.707C186.937 562.087 187.292 562.401 187.723 562.65ZM194.818 567.866C194.373 567.609 193.969 567.279 193.606 566.876C193.243 566.469 192.954 566.019 192.741 565.526C192.527 565.029 192.421 564.517 192.421 563.988C192.421 563.523 192.5 563.192 192.659 562.995C192.817 562.794 193.029 562.688 193.295 562.675C193.56 562.663 193.853 562.709 194.173 562.813C194.496 562.915 194.821 563.036 195.148 563.175C195.575 563.358 195.921 563.51 196.186 563.632C196.455 563.751 196.65 563.806 196.772 563.796C196.897 563.787 196.96 563.682 196.96 563.481L196.96 563.439C196.96 562.918 196.836 562.441 196.589 562.01C196.345 561.58 195.974 561.222 195.477 560.934C194.962 560.637 194.557 560.534 194.265 560.625C193.972 560.717 193.766 560.876 193.647 561.104L192.622 560.089C192.805 559.702 193.049 559.459 193.354 559.36C193.662 559.26 193.998 559.26 194.361 559.36C194.727 559.459 195.087 559.61 195.441 559.814C195.666 559.945 195.926 560.126 196.218 560.359C196.514 560.589 196.8 560.879 197.074 561.228C197.352 561.578 197.582 561.998 197.765 562.488C197.948 562.977 198.04 563.545 198.04 564.189L198.04 569.536L196.96 568.913L196.96 567.814L196.905 567.782C196.832 567.916 196.71 568.034 196.539 568.136C196.368 568.238 196.141 568.278 195.857 568.255C195.573 568.232 195.227 568.102 194.818 567.866ZM194.983 566.841C195.41 567.088 195.77 567.199 196.063 567.174C196.359 567.151 196.581 567.03 196.731 566.81C196.883 566.591 196.96 566.313 196.96 565.975L196.96 564.834C196.914 564.871 196.813 564.871 196.658 564.834C196.505 564.795 196.328 564.737 196.127 564.659C195.929 564.58 195.735 564.5 195.546 564.419C195.36 564.336 195.209 564.27 195.093 564.221C194.812 564.101 194.55 564.018 194.306 563.973C194.065 563.925 193.87 563.951 193.72 564.052C193.574 564.15 193.5 564.358 193.5 564.675C193.5 565.108 193.639 565.516 193.917 565.898C194.197 566.279 194.553 566.593 194.983 566.841ZM202.079 572.058C201.633 571.801 201.229 571.471 200.866 571.068C200.503 570.661 200.215 570.211 200.001 569.718C199.788 569.221 199.681 568.709 199.681 568.18C199.681 567.715 199.76 567.384 199.919 567.187C200.078 566.986 200.29 566.88 200.555 566.867C200.82 566.855 201.113 566.901 201.434 567.005C201.757 567.107 202.082 567.227 202.408 567.367C202.835 567.55 203.181 567.702 203.447 567.824C203.715 567.943 203.911 567.998 204.033 567.987C204.158 567.979 204.22 567.874 204.22 567.673L204.22 567.631C204.22 567.109 204.097 566.633 203.85 566.202C203.606 565.772 203.235 565.413 202.738 565.126C202.222 564.829 201.818 564.726 201.525 564.817C201.232 564.909 201.026 565.068 200.907 565.295L199.882 564.281C200.065 563.893 200.309 563.65 200.615 563.552C200.923 563.451 201.258 563.451 201.621 563.552C201.987 563.65 202.347 563.802 202.701 564.006C202.927 564.137 203.186 564.318 203.479 564.55C203.775 564.781 204.06 565.071 204.335 565.42C204.612 565.77 204.842 566.19 205.026 566.68C205.209 567.169 205.3 567.736 205.3 568.381L205.3 573.728L204.22 573.104L204.22 572.005L204.165 571.974C204.092 572.108 203.97 572.226 203.799 572.328C203.628 572.43 203.401 572.47 203.117 572.447C202.834 572.424 202.488 572.294 202.079 572.058ZM202.243 571.033C202.671 571.28 203.03 571.391 203.323 571.366C203.619 571.343 203.842 571.222 203.991 571.002C204.144 570.783 204.22 570.505 204.22 570.167L204.22 569.026C204.174 569.063 204.074 569.063 203.918 569.026C203.766 568.987 203.589 568.929 203.387 568.851C203.189 568.772 202.995 568.692 202.806 568.611C202.62 568.528 202.469 568.462 202.353 568.413C202.073 568.293 201.81 568.21 201.566 568.164C201.325 568.117 201.13 568.143 200.981 568.244C200.834 568.342 200.761 568.55 200.761 568.867C200.761 569.3 200.9 569.708 201.177 570.09C201.458 570.471 201.813 570.785 202.243 571.033ZM209.339 576.25C208.894 575.993 208.49 575.663 208.127 575.26C207.764 574.853 207.475 574.403 207.262 573.91C207.048 573.413 206.942 572.9 206.942 572.372C206.942 571.907 207.021 571.576 207.18 571.379C207.338 571.178 207.55 571.071 207.816 571.059C208.081 571.047 208.374 571.093 208.694 571.196C209.017 571.299 209.342 571.419 209.669 571.558C210.096 571.742 210.442 571.894 210.707 572.015C210.976 572.135 211.171 572.19 211.293 572.179C211.418 572.17 211.481 572.066 211.481 571.865L211.481 571.823C211.481 571.301 211.357 570.825 211.11 570.393C210.866 569.964 210.495 569.605 209.998 569.318C209.483 569.021 209.078 568.917 208.786 569.009C208.493 569.101 208.287 569.26 208.168 569.487L207.143 568.473C207.326 568.085 207.57 567.842 207.875 567.744C208.183 567.643 208.519 567.643 208.882 567.744C209.248 567.842 209.608 567.994 209.962 568.198C210.187 568.328 210.447 568.51 210.739 568.742C211.035 568.973 211.321 569.263 211.595 569.611C211.873 569.962 212.103 570.382 212.286 570.872C212.469 571.361 212.561 571.928 212.561 572.573L212.561 577.92L211.481 577.296L211.481 576.197L211.426 576.166C211.353 576.299 211.231 576.417 211.06 576.52C210.889 576.622 210.662 576.661 210.378 576.639C210.094 576.616 209.748 576.486 209.339 576.25ZM209.504 575.225C209.931 575.472 210.291 575.583 210.584 575.558C210.88 575.535 211.102 575.414 211.252 575.193C211.404 574.975 211.481 574.697 211.481 574.359L211.481 573.217C211.435 573.254 211.334 573.254 211.179 573.217C211.026 573.179 210.849 573.121 210.648 573.043C210.45 572.964 210.256 572.884 210.067 572.803C209.881 572.72 209.73 572.654 209.614 572.605C209.333 572.485 209.071 572.402 208.827 572.356C208.586 572.309 208.391 572.335 208.241 572.435C208.095 572.534 208.021 572.742 208.021 573.059C208.021 573.492 208.16 573.9 208.438 574.282C208.718 574.662 209.074 574.977 209.504 575.225ZM216.6 580.442C216.154 580.185 215.75 579.855 215.387 579.451C215.024 579.045 214.736 578.595 214.522 578.101C214.309 577.605 214.202 577.092 214.202 576.564C214.202 576.099 214.281 575.768 214.44 575.571C214.599 575.37 214.811 575.263 215.076 575.251C215.341 575.239 215.634 575.284 215.955 575.388C216.278 575.49 216.603 575.611 216.929 575.75C217.356 575.933 217.702 576.086 217.968 576.207C218.236 576.327 218.432 576.382 218.554 576.371C218.679 576.362 218.741 576.257 218.741 576.057L218.741 576.014C218.741 575.493 218.618 575.017 218.371 574.585C218.126 574.155 217.756 573.797 217.259 573.51C216.743 573.212 216.339 573.109 216.046 573.201C215.753 573.292 215.547 573.452 215.428 573.679L214.403 572.665C214.586 572.277 214.83 572.034 215.135 571.935C215.444 571.835 215.779 571.835 216.142 571.935C216.508 572.034 216.868 572.186 217.222 572.39C217.448 572.52 217.707 572.702 218 572.934C218.296 573.165 218.581 573.455 218.856 573.803C219.133 574.154 219.363 574.574 219.546 575.063C219.729 575.553 219.821 576.12 219.821 576.765L219.821 582.112L218.741 581.488L218.741 580.389L218.686 580.357C218.613 580.491 218.491 580.609 218.32 580.711C218.149 580.814 217.922 580.853 217.638 580.83C217.355 580.807 217.008 580.678 216.6 580.442ZM216.764 579.417C217.192 579.664 217.551 579.775 217.844 579.75C218.14 579.727 218.363 579.605 218.512 579.385C218.665 579.167 218.741 578.889 218.741 578.55L218.741 577.409C218.695 577.446 218.595 577.446 218.439 577.409C218.287 577.371 218.11 577.312 217.908 577.235C217.71 577.156 217.516 577.076 217.327 576.994C217.141 576.912 216.99 576.846 216.874 576.796C216.594 576.677 216.331 576.594 216.087 576.548C215.846 576.5 215.651 576.527 215.502 576.627C215.355 576.726 215.282 576.934 215.282 577.251C215.282 577.684 215.421 578.092 215.698 578.474C215.979 578.854 216.334 579.169 216.764 579.417ZM223.86 584.634C223.415 584.377 223.011 584.047 222.648 583.643C222.285 583.236 221.996 582.786 221.783 582.293C221.569 581.797 221.463 581.284 221.463 580.756C221.463 580.291 221.542 579.96 221.7 579.762C221.859 579.562 222.071 579.455 222.337 579.443C222.602 579.43 222.895 579.476 223.215 579.58C223.538 579.682 223.863 579.803 224.19 579.942C224.617 580.125 224.963 580.278 225.228 580.399C225.497 580.519 225.692 580.573 225.814 580.563C225.939 580.554 226.002 580.449 226.002 580.249L226.002 580.206C226.002 579.685 225.878 579.209 225.631 578.777C225.387 578.347 225.016 577.989 224.519 577.702C224.004 577.404 223.599 577.301 223.307 577.393C223.014 577.484 222.808 577.644 222.689 577.871L221.664 576.856C221.847 576.469 222.091 576.226 222.396 576.127C222.704 576.027 223.04 576.027 223.403 576.127C223.769 576.226 224.129 576.377 224.483 576.582C224.708 576.712 224.968 576.893 225.26 577.126C225.556 577.357 225.841 577.646 226.116 577.995C226.394 578.346 226.624 578.766 226.807 579.255C226.99 579.745 227.081 580.312 227.081 580.957L227.081 586.303L226.002 585.68L226.002 584.581L225.947 584.549C225.874 584.683 225.751 584.801 225.581 584.903C225.41 585.005 225.183 585.045 224.899 585.022C224.615 584.999 224.269 584.87 223.86 584.634ZM224.025 583.609C224.452 583.855 224.812 583.966 225.105 583.942C225.401 583.919 225.623 583.797 225.773 583.577C225.925 583.359 226.002 583.08 226.002 582.742L226.002 581.601C225.956 581.638 225.855 581.638 225.7 581.601C225.547 581.562 225.37 581.504 225.169 581.427C224.971 581.347 224.777 581.267 224.588 581.186C224.402 581.104 224.251 581.038 224.135 580.988C223.854 580.868 223.592 580.786 223.348 580.74C223.107 580.692 222.912 580.719 222.762 580.819C222.616 580.918 222.542 581.126 222.542 581.443C222.542 581.876 222.681 582.284 222.959 582.666C223.239 583.046 223.595 583.361 224.025 583.609ZM231.121 588.826C230.675 588.569 230.271 588.238 229.908 587.835C229.545 587.428 229.257 586.978 229.043 586.485C228.83 585.988 228.723 585.476 228.723 584.948C228.723 584.483 228.802 584.152 228.961 583.954C229.12 583.753 229.332 583.647 229.597 583.635C229.862 583.622 230.155 583.668 230.476 583.772C230.799 583.874 231.124 583.995 231.45 584.134C231.877 584.317 232.223 584.469 232.489 584.591C232.757 584.711 232.952 584.765 233.075 584.755C233.2 584.746 233.262 584.641 233.262 584.44L233.262 584.398C233.262 583.877 233.139 583.4 232.891 582.969C232.647 582.539 232.277 582.181 231.78 581.894C231.264 581.596 230.86 581.493 230.567 581.585C230.274 581.676 230.068 581.836 229.949 582.063L228.924 581.048C229.107 580.661 229.351 580.418 229.656 580.319C229.965 580.219 230.3 580.219 230.663 580.319C231.029 580.418 231.389 580.569 231.743 580.774C231.969 580.904 232.228 581.085 232.521 581.318C232.817 581.548 233.102 581.838 233.377 582.187C233.654 582.537 233.884 582.957 234.067 583.447C234.25 583.937 234.342 584.504 234.342 585.148L234.342 590.495L233.262 589.872L233.262 588.773L233.207 588.741C233.134 588.875 233.012 588.993 232.841 589.095C232.67 589.197 232.443 589.237 232.159 589.214C231.876 589.191 231.529 589.062 231.121 588.826ZM231.285 587.801C231.712 588.047 232.072 588.158 232.365 588.134C232.661 588.111 232.884 587.989 233.033 587.769C233.186 587.551 233.262 587.272 233.262 586.934L233.262 585.793C233.216 585.83 233.116 585.83 232.96 585.793C232.808 585.754 232.631 585.696 232.429 585.619C232.231 585.539 232.037 585.459 231.848 585.378C231.662 585.295 231.511 585.229 231.395 585.18C231.115 585.06 230.852 584.978 230.608 584.932C230.367 584.884 230.172 584.911 230.023 585.011C229.876 585.11 229.803 585.317 229.803 585.634C229.803 586.068 229.942 586.475 230.219 586.858C230.5 587.238 230.855 587.552 231.285 587.801ZM240.468 594.032L239.278 593.345L242.719 584.511L243.89 585.187L247.331 597.995L246.142 597.308L243.341 586.582L243.268 586.54L240.468 594.032ZM240.907 590.059L245.702 592.827L245.702 593.99L240.907 591.221L240.907 590.059ZM251.481 603.603C250.96 603.302 250.511 602.966 250.136 602.594C249.761 602.226 249.448 601.845 249.198 601.45C248.951 601.061 248.754 600.683 248.608 600.317L249.468 600.116C249.566 600.32 249.689 600.561 249.839 600.837C249.988 601.117 250.193 601.403 250.452 601.693C250.714 601.989 251.057 602.259 251.481 602.504C252.049 602.832 252.517 602.944 252.886 602.84C253.255 602.736 253.44 602.346 253.44 601.669L253.44 600.021L253.348 599.968C253.269 600.07 253.156 600.188 253.01 600.322C252.866 600.454 252.659 600.526 252.387 600.539C252.119 600.549 251.756 600.422 251.298 600.158C250.731 599.831 250.222 599.382 249.77 598.811C249.322 598.242 248.966 597.586 248.704 596.843C248.445 596.101 248.315 595.308 248.315 594.463C248.315 593.631 248.442 592.981 248.695 592.51C248.948 592.037 249.3 591.761 249.752 591.683C250.203 591.602 250.725 591.733 251.317 592.074C251.774 592.339 252.137 592.636 252.406 592.967C252.677 593.297 252.885 593.614 253.028 593.918C253.174 594.221 253.287 594.466 253.367 594.653L253.476 594.716L253.476 593.427L254.52 594.029L254.52 602.377C254.52 603.075 254.382 603.563 254.108 603.841C253.836 604.124 253.47 604.235 253.01 604.174C252.552 604.117 252.043 603.927 251.481 603.603ZM251.445 599.123C251.878 599.373 252.244 599.47 252.543 599.413C252.842 599.357 253.069 599.159 253.225 598.819C253.38 598.479 253.458 598.01 253.458 597.411C253.458 596.826 253.382 596.266 253.229 595.731C253.077 595.195 252.851 594.714 252.552 594.288C252.253 593.862 251.884 593.522 251.445 593.269C250.987 593.004 250.606 592.918 250.301 593.01C249.999 593.103 249.772 593.331 249.619 593.694C249.47 594.058 249.395 594.515 249.395 595.065C249.395 595.629 249.471 596.171 249.624 596.692C249.779 597.212 250.008 597.682 250.31 598.103C250.615 598.522 250.993 598.862 251.445 599.123ZM259.443 605.157C258.766 604.766 258.182 604.256 257.691 603.627C257.203 602.996 256.826 602.293 256.56 601.516C256.298 600.738 256.167 599.933 256.167 599.102C256.167 598.27 256.298 597.613 256.56 597.131C256.826 596.646 257.195 596.363 257.668 596.28C258.144 596.196 258.699 596.336 259.333 596.703C259.699 596.914 260.061 597.193 260.418 597.54C260.775 597.887 261.1 598.304 261.392 598.79C261.685 599.272 261.919 599.823 262.092 600.441C262.266 601.059 262.353 601.747 262.353 602.504L262.353 603.033L256.936 599.905L256.936 598.827L261.255 601.321C261.255 600.863 261.176 600.408 261.017 599.957C260.862 599.508 260.639 599.096 260.349 598.721C260.062 598.348 259.724 598.048 259.333 597.823C258.903 597.575 258.531 597.483 258.217 597.548C257.906 597.612 257.666 597.79 257.498 598.084C257.331 598.379 257.247 598.749 257.247 599.197L257.247 599.915C257.247 600.528 257.338 601.101 257.521 601.632C257.707 602.162 257.965 602.634 258.295 603.046C258.624 603.454 259.007 603.785 259.443 604.036C259.727 604.2 259.983 604.302 260.212 604.343C260.444 604.382 260.643 604.356 260.811 604.266C260.979 604.173 261.109 604.012 261.2 603.783L262.243 604.723C262.134 605.068 261.949 605.321 261.69 605.481C261.43 605.638 261.11 605.693 260.729 605.645C260.348 605.594 259.919 605.431 259.443 605.157ZM265.076 603.357L265.076 608.239L263.996 607.616L263.996 599.5L265.039 600.103L265.039 601.371L265.131 601.424C265.295 601.107 265.546 600.92 265.881 600.864C266.217 600.804 266.65 600.927 267.181 601.233C267.656 601.508 268.073 601.861 268.43 602.293C268.787 602.721 269.064 603.219 269.263 603.788C269.461 604.353 269.56 604.981 269.56 605.672L269.56 610.828L268.48 610.205L268.48 605.133C268.48 604.495 268.337 603.916 268.05 603.394C267.763 602.87 267.37 602.463 266.869 602.174C266.525 601.975 266.217 601.883 265.945 601.899C265.677 601.917 265.465 602.046 265.309 602.288C265.154 602.529 265.076 602.885 265.076 603.357ZM274.59 605.617L274.59 606.674L270.948 604.571L270.948 603.514L274.59 605.617ZM272.009 602.183L273.089 602.806L273.089 610.541C273.089 610.893 273.133 611.183 273.222 611.41C273.313 611.636 273.429 611.819 273.569 611.96C273.713 612.099 273.864 612.214 274.022 612.306C274.141 612.375 274.239 612.424 274.315 612.454C274.392 612.48 274.453 612.501 274.498 612.517L274.718 613.764C274.645 613.754 274.543 613.726 274.411 613.682C274.28 613.642 274.114 613.563 273.913 613.447C273.608 613.271 273.309 613.023 273.016 612.702C272.726 612.383 272.485 612.013 272.293 611.593C272.104 611.173 272.009 610.728 272.009 610.256L272.009 602.183ZM281.067 611.174L280.097 610.931C280.036 610.709 279.946 610.476 279.827 610.231C279.711 609.984 279.552 609.745 279.351 609.512C279.149 609.28 278.892 609.073 278.578 608.891C278.147 608.643 277.789 608.551 277.502 608.614C277.219 608.676 277.077 608.881 277.077 609.229C277.077 609.539 277.174 609.841 277.37 610.133C277.565 610.425 277.87 610.751 278.285 611.11L279.328 612.009C279.956 612.548 280.425 613.087 280.733 613.628C281.041 614.165 281.195 614.717 281.195 615.284C281.195 615.749 281.079 616.098 280.847 616.331C280.618 616.565 280.298 616.669 279.886 616.642C279.474 616.616 278.995 616.445 278.449 616.13C277.733 615.716 277.139 615.194 276.669 614.563C276.2 613.933 275.902 613.236 275.777 612.474L276.802 612.769C276.9 613.263 277.084 613.697 277.356 614.072C277.63 614.449 277.989 614.765 278.431 615.02C278.934 615.311 279.334 615.418 279.63 615.343C279.929 615.265 280.078 615.052 280.078 614.703C280.078 614.421 279.993 614.136 279.822 613.847C279.651 613.555 279.389 613.259 279.035 612.96L277.864 611.966C277.22 611.419 276.747 610.873 276.445 610.328C276.146 609.782 275.997 609.229 275.997 608.669C275.997 608.212 276.108 607.871 276.331 607.647C276.557 607.425 276.863 607.326 277.251 607.349C277.641 607.373 278.083 607.528 278.578 607.813C279.273 608.215 279.819 608.706 280.216 609.288C280.615 609.871 280.899 610.499 281.067 611.174Z" fill="white"/>
<g filter="url(#filter5_bi_9_723)">
<rect width="14.8785" height="323.855" transform="matrix(0.866025 -0.5 2.20305e-08 1 223.887 272.963)" fill="url(#paint14_radial_9_723)"/>
</g>
<g filter="url(#filter6_bi_9_723)">
<rect width="14.8785" height="258.269" transform="matrix(0.866025 -0.5 0.866025 0.5 0.213867 144.016)" fill="url(#paint15_radial_9_723)"/>
</g>
<g clip-path="url(#clip1_9_723)" filter="url(#filter7_bi_9_723)">
<rect width="258.39" height="323.855" transform="matrix(0.866025 0.5 -2.20305e-08 1 0.213867 144.016)" fill="url(#paint16_radial_9_723)"/>
<g clip-path="url(#clip2_9_723)">
<path d="M125.249 343.83L118.495 341.131C118.066 337.976 117.397 334.886 116.508 331.963L120.859 323.642C121.059 323.26 121.162 322.726 121.147 322.147C121.131 321.568 120.999 320.988 120.776 320.523L117.262 313.161C117.04 312.696 116.745 312.381 116.435 312.278C116.125 312.175 115.824 312.292 115.593 312.605L110.543 319.468C109.082 317.464 107.502 315.836 105.856 314.638L105.278 301.973C105.249 301.394 105.106 300.823 104.875 300.375C104.645 299.926 104.346 299.632 104.037 299.552L99.1288 298.252C98.8181 298.168 98.5202 298.306 98.2952 298.638C98.0702 298.97 97.9349 299.472 97.9165 300.041L97.5127 312.446C95.8771 312.769 94.3143 313.558 92.8752 314.788L87.7044 305.231C87.4673 304.794 87.1636 304.517 86.8542 304.456C86.5449 304.395 86.2528 304.555 86.0366 304.903L82.6115 310.427C82.3947 310.776 82.27 311.288 82.2626 311.861C82.2552 312.434 82.3657 313.024 82.5717 313.514L87.0617 324.163C86.207 326.623 85.5748 329.368 85.1857 332.308L78.4439 331.431C78.1356 331.395 77.8494 331.578 77.6425 331.945C77.4357 332.312 77.3235 332.835 77.3284 333.41L77.3916 342.523C77.3949 343.1 77.5162 343.688 77.7309 344.167C77.9457 344.646 78.2379 344.981 78.5485 345.103L85.303 347.802C85.7319 350.957 86.4013 354.047 87.2893 356.97L82.9382 365.295C82.739 365.677 82.6368 366.211 82.6521 366.788C82.6675 367.366 82.7993 367.945 83.021 368.41L86.5355 375.772C86.7574 376.236 87.0528 376.552 87.3624 376.655C87.672 376.758 87.973 376.641 88.2049 376.328L93.2545 369.465C94.7154 371.47 96.295 373.097 97.9417 374.295L98.5194 386.956C98.5476 387.535 98.6911 388.107 98.9213 388.556C99.1516 389.006 99.4515 389.301 99.7609 389.381L104.669 390.681C104.98 390.765 105.278 390.626 105.503 390.293C105.728 389.96 105.863 389.458 105.881 388.887L106.285 376.487C107.92 376.164 109.483 375.375 110.922 374.145L116.093 383.701C116.33 384.139 116.634 384.416 116.943 384.477C117.253 384.538 117.545 384.378 117.761 384.03L121.186 378.506C121.402 378.157 121.526 377.646 121.534 377.074C121.541 376.502 121.431 375.913 121.226 375.424L116.736 364.77C117.59 362.309 118.222 359.564 118.612 356.625L125.354 357.502C125.662 357.538 125.948 357.355 126.155 356.988C126.362 356.621 126.474 356.098 126.469 355.523L126.406 346.41C126.403 345.833 126.281 345.245 126.067 344.766C125.852 344.287 125.56 343.952 125.249 343.83ZM101.994 358.136C100.538 357.75 99.1087 356.571 97.8877 354.749C96.6667 352.926 95.7083 350.541 95.1338 347.896C94.5593 345.251 94.3944 342.464 94.6601 339.887C94.9257 337.311 95.61 335.061 96.6262 333.422C97.6425 331.783 98.9452 330.828 100.37 330.679C101.794 330.53 103.276 331.193 104.628 332.584C105.981 333.975 107.143 336.031 107.967 338.494C108.792 340.956 109.242 343.713 109.26 346.416C109.286 350.042 108.534 353.313 107.171 355.511C105.808 357.709 103.946 358.653 101.994 358.136Z" fill="url(#paint17_linear_9_723)"/>
<g filter="url(#filter8_bi_9_723)">
<path d="M99.5004 257.481C74.2819 252.557 54.9652 287.363 55.2904 334.244L55.3315 340.168L47.0908 369.326C46.8097 370.32 46.6456 371.44 46.608 372.621C46.5704 373.803 46.6599 375.024 46.8715 376.213C47.0831 377.403 47.4126 378.538 47.8412 379.555C48.2698 380.571 48.7891 381.448 49.3694 382.136L55.6744 389.61L55.8446 414.133C55.8865 420.175 57.2193 426.312 59.5499 431.194C61.8805 436.076 65.0179 439.303 68.272 440.165L85.4491 444.715L85.5755 462.941L134.653 475.941L134.237 415.928C141.083 405.703 145.753 391.262 147.619 374.542C149.486 357.822 148.461 339.622 144.682 322.381C140.902 305.141 134.549 289.685 126.473 278.085C118.398 266.485 108.986 259.296 99.5004 257.481Z" fill="url(#paint18_linear_9_723)" fill-opacity="0.2"/>
<path d="M99.5106 257.754L99.5111 257.754C108.95 259.56 118.319 266.714 126.363 278.268C134.408 289.824 140.742 305.229 144.511 322.423C148.281 339.617 149.304 357.771 147.441 374.449C145.579 391.127 140.922 405.524 134.099 415.714L134.056 415.779L134.056 415.88L134.471 475.622L85.754 462.717L85.6295 444.763L85.6276 444.492L85.4472 444.444L68.2701 439.894C65.0777 439.048 61.9897 435.88 59.689 431.061C57.3874 426.239 56.0665 420.167 56.025 414.18L55.8549 389.658L55.8538 389.506L55.7676 389.404L49.4626 381.931C48.905 381.27 48.4034 380.423 47.9878 379.438C47.5722 378.453 47.2515 377.349 47.0452 376.189C46.8389 375.029 46.7515 373.838 46.7882 372.685C46.8249 371.531 46.9851 370.439 47.2587 369.472L47.2587 369.472L55.4994 340.314L55.5122 340.268L55.5119 340.215L55.4708 334.292C55.1462 287.494 74.4248 252.855 99.5106 257.754Z" stroke="url(#paint19_linear_9_723)" stroke-opacity="0.1" stroke-width="0.49595"/>
</g>
<g filter="url(#filter9_i_9_723)">
<path d="M125.249 343.832L118.495 341.133C118.066 337.978 117.397 334.888 116.508 331.965L120.859 323.644C121.059 323.262 121.162 322.728 121.147 322.149C121.131 321.57 120.999 320.99 120.776 320.525L117.262 313.163C117.04 312.698 116.745 312.383 116.435 312.28C116.125 312.177 115.824 312.294 115.593 312.607L110.543 319.47C109.082 317.466 107.502 315.838 105.856 314.64L105.278 301.975C105.249 301.396 105.106 300.825 104.875 300.377C104.645 299.928 104.346 299.634 104.037 299.554L99.1288 298.254C98.8181 298.17 98.5202 298.308 98.2952 298.64C98.0702 298.972 97.9349 299.474 97.9165 300.043L97.5127 312.448C95.8771 312.771 94.3143 313.56 92.8752 314.79L87.7044 305.233C87.4673 304.796 87.1636 304.519 86.8542 304.458C86.5449 304.397 86.2528 304.557 86.0366 304.905L82.6115 310.429C82.3947 310.778 82.27 311.29 82.2626 311.863C82.2552 312.436 82.3657 313.026 82.5717 313.516L87.0617 324.165C86.207 326.625 85.5748 329.37 85.1857 332.31L78.4439 331.433C78.1356 331.396 77.8494 331.58 77.6425 331.947C77.4357 332.314 77.3235 332.837 77.3284 333.412L77.3916 342.525C77.3949 343.102 77.5162 343.69 77.7309 344.169C77.9457 344.648 78.2379 344.983 78.5485 345.105L85.303 347.804C85.7319 350.959 86.4013 354.049 87.2893 356.972L82.9382 365.297C82.739 365.679 82.6368 366.213 82.6521 366.79C82.6675 367.368 82.7993 367.947 83.021 368.412L86.5355 375.774C86.7574 376.238 87.0528 376.554 87.3624 376.657C87.672 376.76 87.973 376.643 88.2049 376.33L93.2545 369.467C94.7154 371.472 96.295 373.099 97.9417 374.297L98.5194 386.957C98.5476 387.537 98.6911 388.109 98.9213 388.558C99.1516 389.008 99.4515 389.303 99.7609 389.383L104.669 390.683C104.98 390.767 105.278 390.628 105.503 390.295C105.728 389.962 105.863 389.46 105.881 388.889L106.285 376.489C107.92 376.166 109.483 375.377 110.922 374.147L116.093 383.703C116.33 384.141 116.634 384.418 116.943 384.479C117.253 384.54 117.545 384.38 117.761 384.031L121.186 378.508C121.402 378.159 121.526 377.648 121.534 377.076C121.541 376.504 121.431 375.915 121.226 375.426L116.736 364.772C117.59 362.311 118.222 359.566 118.612 356.627L125.354 357.503C125.662 357.54 125.948 357.357 126.155 356.99C126.362 356.623 126.474 356.1 126.469 355.525L126.406 346.412C126.403 345.835 126.281 345.247 126.067 344.768C125.852 344.289 125.56 343.954 125.249 343.832ZM101.994 358.138C100.538 357.752 99.1087 356.573 97.8877 354.751C96.6667 352.928 95.7083 350.543 95.1338 347.898C94.5593 345.253 94.3944 342.465 94.6601 339.889C94.9257 337.313 95.61 335.063 96.6262 333.424C97.6425 331.785 98.9452 330.83 100.37 330.681C101.794 330.532 103.276 331.195 104.628 332.586C105.981 333.977 107.143 336.033 107.967 338.496C108.792 340.958 109.242 343.715 109.26 346.418C109.286 350.044 108.534 353.315 107.171 355.513C105.808 357.711 103.946 358.655 101.994 358.138Z" fill="white" fill-opacity="0.16"/>
</g>
</g>
<path d="M58.6767 439.439C58.2313 439.182 57.8271 438.852 57.4641 438.448C57.1011 438.042 56.8128 437.592 56.5993 437.098C56.3858 436.602 56.279 436.089 56.279 435.561C56.279 435.096 56.3583 434.765 56.517 434.568C56.6756 434.367 56.8876 434.26 57.153 434.248C57.4184 434.236 57.7112 434.281 58.0315 434.385C58.3549 434.487 58.6797 434.608 59.0061 434.747C59.4332 434.93 59.7794 435.083 60.0448 435.204C60.3133 435.324 60.5085 435.379 60.6305 435.368C60.7556 435.359 60.8181 435.254 60.8181 435.054L60.8181 435.011C60.8181 434.49 60.6946 434.014 60.4475 433.582C60.2034 433.152 59.8328 432.794 59.3356 432.507C58.8201 432.209 58.4159 432.106 58.123 432.198C57.8302 432.29 57.6243 432.449 57.5053 432.676L56.4803 431.662C56.6634 431.274 56.9074 431.031 57.2125 430.933C57.5206 430.832 57.8561 430.832 58.2191 430.933C58.5852 431.031 58.9451 431.183 59.299 431.387C59.5247 431.517 59.784 431.699 60.0768 431.931C60.3727 432.162 60.658 432.452 60.9325 432.8C61.2101 433.151 61.4404 433.571 61.6234 434.06C61.8065 434.55 61.898 435.117 61.898 435.762L61.898 441.109L60.8181 440.485L60.8181 439.386L60.7632 439.355C60.69 439.488 60.568 439.606 60.3971 439.709C60.2263 439.811 59.9991 439.85 59.7154 439.827C59.4317 439.804 59.0854 439.675 58.6767 439.439ZM58.8414 438.414C59.2685 438.661 59.6284 438.772 59.9213 438.747C60.2172 438.724 60.4398 438.602 60.5893 438.382C60.7418 438.164 60.8181 437.886 60.8181 437.548L60.8181 436.406C60.7724 436.443 60.6717 436.443 60.5161 436.406C60.3636 436.368 60.1867 436.309 59.9853 436.232C59.7871 436.153 59.5933 436.073 59.4042 435.992C59.2181 435.909 59.0671 435.843 58.9512 435.793C58.6706 435.674 58.4082 435.591 58.1642 435.545C57.9232 435.498 57.728 435.524 57.5785 435.624C57.4321 435.723 57.3589 435.931 57.3589 436.248C57.3589 436.681 57.4977 437.089 57.7753 437.471C58.0559 437.851 58.4113 438.166 58.8414 438.414ZM65.9372 443.631C65.4918 443.374 65.0876 443.044 64.7246 442.64C64.3616 442.233 64.0733 441.783 63.8598 441.29C63.6463 440.794 63.5395 440.281 63.5395 439.753C63.5395 439.288 63.6188 438.957 63.7774 438.759C63.9361 438.559 64.1481 438.452 64.4135 438.44C64.6788 438.427 64.9717 438.473 65.292 438.577C65.6153 438.679 65.9402 438.8 66.2666 438.939C66.6937 439.122 67.0399 439.275 67.3053 439.396C67.5737 439.516 67.769 439.57 67.891 439.56C68.0161 439.551 68.0786 439.446 68.0786 439.246L68.0786 439.203C68.0786 438.682 67.955 438.206 67.708 437.774C67.4639 437.344 67.0933 436.986 66.5961 436.699C66.0805 436.401 65.6764 436.298 65.3835 436.39C65.0907 436.481 64.8848 436.641 64.7658 436.868L63.7408 435.853C63.9239 435.466 64.1679 435.223 64.4729 435.124C64.781 435.024 65.1166 435.024 65.4796 435.124C65.8457 435.223 66.2056 435.374 66.5595 435.579C66.7852 435.709 67.0445 435.89 67.3373 436.123C67.6332 436.354 67.9184 436.643 68.193 436.992C68.4706 437.343 68.7009 437.763 68.8839 438.252C69.0669 438.742 69.1585 439.309 69.1585 439.954L69.1585 445.3L68.0786 444.677L68.0786 443.578L68.0237 443.546C67.9505 443.68 67.8285 443.798 67.6576 443.9C67.4868 444.003 67.2595 444.042 66.9758 444.019C66.6922 443.996 66.3459 443.867 65.9372 443.631ZM66.1019 442.606C66.529 442.852 66.8889 442.963 67.1818 442.939C67.4776 442.916 67.7003 442.794 67.8498 442.574C68.0023 442.356 68.0786 442.078 68.0786 441.739L68.0786 440.598C68.0328 440.635 67.9322 440.635 67.7766 440.598C67.6241 440.559 67.4471 440.501 67.2458 440.424C67.0475 440.345 66.8538 440.264 66.6647 440.183C66.4786 440.101 66.3276 440.035 66.2117 439.985C65.9311 439.865 65.6687 439.783 65.4247 439.737C65.1837 439.689 64.9885 439.716 64.839 439.816C64.6926 439.915 64.6194 440.123 64.6194 440.44C64.6194 440.873 64.7582 441.281 65.0358 441.663C65.3164 442.043 65.6718 442.358 66.1019 442.606ZM73.1976 447.823C72.7523 447.566 72.3481 447.235 71.9851 446.832C71.6221 446.425 71.3338 445.975 71.1203 445.482C70.9068 444.985 70.8 444.473 70.8 443.945C70.8 443.48 70.8793 443.149 71.0379 442.951C71.1965 442.751 71.4086 442.644 71.6739 442.632C71.9393 442.619 72.2322 442.665 72.5525 442.769C72.8758 442.871 73.2007 442.992 73.5271 443.131C73.9542 443.314 74.3004 443.466 74.5658 443.588C74.8342 443.708 75.0295 443.762 75.1515 443.752C75.2765 443.743 75.3391 443.638 75.3391 443.437L75.3391 443.395C75.3391 442.874 75.2155 442.397 74.9684 441.966C74.7244 441.536 74.3538 441.178 73.8566 440.891C73.341 440.593 72.9368 440.49 72.644 440.582C72.3511 440.673 72.1452 440.833 72.0263 441.06L71.0013 440.045C71.1843 439.658 71.4284 439.415 71.7334 439.316C72.0415 439.216 72.3771 439.216 72.7401 439.316C73.1061 439.415 73.4661 439.566 73.8199 439.771C74.0457 439.901 74.305 440.082 74.5978 440.315C74.8937 440.546 75.1789 440.835 75.4535 441.184C75.7311 441.534 75.9614 441.954 76.1444 442.444C76.3274 442.934 76.4189 443.501 76.4189 444.145L76.4189 449.492L75.3391 448.869L75.3391 447.77L75.2842 447.738C75.211 447.872 75.0889 447.99 74.9181 448.092C74.7473 448.194 74.52 448.234 74.2363 448.211C73.9526 448.188 73.6064 448.059 73.1976 447.823ZM73.3624 446.798C73.7894 447.044 74.1494 447.155 74.4422 447.131C74.7381 447.108 74.9608 446.986 75.1103 446.766C75.2628 446.548 75.3391 446.269 75.3391 445.931L75.3391 444.79C75.2933 444.827 75.1927 444.827 75.0371 444.79C74.8846 444.751 74.7076 444.693 74.5063 444.616C74.308 444.536 74.1143 444.456 73.9252 444.375C73.7391 444.292 73.5881 444.226 73.4722 444.177C73.1915 444.057 72.9292 443.975 72.6852 443.929C72.4442 443.881 72.249 443.908 72.0995 444.008C71.9531 444.107 71.8798 444.314 71.8798 444.631C71.8798 445.065 72.0186 445.472 72.2962 445.855C72.5769 446.235 72.9323 446.549 73.3624 446.798ZM80.4581 452.015C80.0128 451.757 79.6086 451.427 79.2456 451.024C78.8826 450.617 78.5943 450.167 78.3808 449.674C78.1672 449.177 78.0605 448.665 78.0605 448.136C78.0605 447.671 78.1398 447.34 78.2984 447.143C78.457 446.942 78.669 446.836 78.9344 446.823C79.1998 446.811 79.4927 446.857 79.813 446.961C80.1363 447.063 80.4612 447.184 80.7876 447.323C81.2146 447.506 81.5609 447.658 81.8263 447.78C82.0947 447.9 82.2899 447.954 82.412 447.944C82.537 447.935 82.5996 447.83 82.5996 447.629L82.5996 447.587C82.5996 447.066 82.476 446.589 82.2289 446.158C81.9849 445.728 81.6143 445.37 81.117 445.083C80.6015 444.785 80.1973 444.682 79.9045 444.773C79.6116 444.865 79.4057 445.024 79.2868 445.252L78.2618 444.237C78.4448 443.85 78.6889 443.607 78.9939 443.508C79.302 443.408 79.6376 443.408 80.0006 443.508C80.3666 443.607 80.7266 443.758 81.0804 443.962C81.3062 444.093 81.5655 444.274 81.8583 444.507C82.1542 444.737 82.4394 445.027 82.714 445.376C82.9915 445.726 83.2219 446.146 83.4049 446.636C83.5879 447.126 83.6794 447.693 83.6794 448.337L83.6794 453.684L82.5996 453.061L82.5996 451.962L82.5447 451.93C82.4714 452.064 82.3494 452.182 82.1786 452.284C82.0078 452.386 81.7805 452.426 81.4968 452.403C81.2131 452.38 80.8669 452.251 80.4581 452.015ZM80.6229 450.99C81.0499 451.236 81.4099 451.347 81.7027 451.322C81.9986 451.3 82.2213 451.178 82.3708 450.958C82.5233 450.739 82.5996 450.461 82.5996 450.123L82.5996 448.982C82.5538 449.019 82.4531 449.019 82.2976 448.982C82.145 448.943 81.9681 448.885 81.7668 448.807C81.5685 448.728 81.3748 448.648 81.1857 448.567C80.9996 448.484 80.8486 448.418 80.7327 448.369C80.452 448.249 80.1897 448.166 79.9457 448.121C79.7047 448.073 79.5094 448.099 79.36 448.2C79.2135 448.298 79.1403 448.506 79.1403 448.823C79.1403 449.257 79.2791 449.664 79.5567 450.046C79.8374 450.427 80.1927 450.741 80.6229 450.99ZM87.7186 456.206C87.2733 455.949 86.8691 455.619 86.5061 455.216C86.1431 454.809 85.8548 454.359 85.6413 453.866C85.4277 453.369 85.321 452.857 85.321 452.328C85.321 451.863 85.4003 451.532 85.5589 451.335C85.7175 451.134 85.9295 451.028 86.1949 451.015C86.4603 451.003 86.7531 451.049 87.0734 451.153C87.3968 451.255 87.7217 451.375 88.0481 451.515C88.4751 451.698 88.8214 451.85 89.0868 451.972C89.3552 452.091 89.5504 452.146 89.6724 452.135C89.7975 452.127 89.86 452.022 89.86 451.821L89.86 451.779C89.86 451.257 89.7365 450.781 89.4894 450.35C89.2454 449.92 88.8747 449.561 88.3775 449.274C87.862 448.977 87.4578 448.874 87.165 448.965C86.8721 449.057 86.6662 449.216 86.5472 449.443L85.5223 448.429C85.7053 448.042 85.9493 447.799 86.2544 447.7C86.5625 447.6 86.898 447.6 87.261 447.7C87.6271 447.799 87.9871 447.95 88.3409 448.154C88.5666 448.285 88.8259 448.466 89.1188 448.698C89.4147 448.929 89.6999 449.219 89.9744 449.568C90.252 449.918 90.4823 450.338 90.6654 450.828C90.8484 451.317 90.9399 451.884 90.9399 452.529L90.9399 457.876L89.86 457.253L89.86 456.154L89.8051 456.122C89.7319 456.256 89.6099 456.374 89.4391 456.476C89.2683 456.578 89.041 456.618 88.7573 456.595C88.4736 456.572 88.1274 456.442 87.7186 456.206ZM87.8833 455.181C88.3104 455.428 88.6704 455.539 88.9632 455.514C89.2591 455.491 89.4818 455.37 89.6313 455.15C89.7838 454.931 89.86 454.653 89.86 454.315L89.86 453.174C89.8143 453.211 89.7136 453.211 89.558 453.174C89.4055 453.135 89.2286 453.077 89.0273 452.999C88.829 452.92 88.6353 452.84 88.4462 452.759C88.2601 452.676 88.1091 452.61 87.9932 452.561C87.7125 452.441 87.4502 452.358 87.2061 452.312C86.9652 452.265 86.7699 452.291 86.6205 452.392C86.474 452.49 86.4008 452.698 86.4008 453.015C86.4008 453.448 86.5396 453.856 86.8172 454.238C87.0978 454.619 87.4532 454.933 87.8833 455.181ZM94.9791 460.398C94.5337 460.141 94.1295 459.811 93.7665 459.408C93.4035 459.001 93.1153 458.551 92.9017 458.058C92.6882 457.561 92.5814 457.048 92.5814 456.52C92.5814 456.055 92.6608 455.724 92.8194 455.527C92.978 455.326 93.19 455.219 93.4554 455.207C93.7208 455.195 94.0136 455.241 94.3339 455.345C94.6573 455.447 94.9822 455.567 95.3086 455.706C95.7356 455.89 96.0818 456.042 96.3472 456.163C96.6157 456.283 96.8109 456.338 96.9329 456.327C97.058 456.318 97.1205 456.214 97.1205 456.013L97.1205 455.971C97.1205 455.449 96.997 454.973 96.7499 454.541C96.5059 454.112 96.1352 453.753 95.638 453.466C95.1225 453.169 94.7183 453.066 94.4254 453.157C94.1326 453.249 93.9267 453.408 93.8077 453.635L92.7828 452.621C92.9658 452.233 93.2098 451.99 93.5149 451.892C93.823 451.791 94.1585 451.791 94.5215 451.892C94.8876 451.99 95.2475 452.142 95.6014 452.346C95.8271 452.476 96.0864 452.658 96.3793 452.89C96.6752 453.121 96.9604 453.411 97.2349 453.759C97.5125 454.11 97.7428 454.53 97.9259 455.02C98.1089 455.509 98.2004 456.076 98.2004 456.721L98.2004 462.068L97.1205 461.444L97.1205 460.345L97.0656 460.314C96.9924 460.448 96.8704 460.566 96.6996 460.668C96.5287 460.77 96.3015 460.809 96.0178 460.787C95.7341 460.764 95.3879 460.634 94.9791 460.398ZM95.1438 459.373C95.5709 459.62 95.9308 459.731 96.2237 459.706C96.5196 459.683 96.7423 459.562 96.8917 459.342C97.0443 459.123 97.1205 458.845 97.1205 458.507L97.1205 457.365C97.0748 457.402 96.9741 457.402 96.8185 457.365C96.666 457.327 96.4891 457.269 96.2878 457.191C96.0895 457.112 95.8958 457.032 95.7066 456.951C95.5206 456.868 95.3696 456.802 95.2536 456.753C94.973 456.633 94.7107 456.55 94.4666 456.504C94.2256 456.457 94.0304 456.483 93.8809 456.584C93.7345 456.682 93.6613 456.89 93.6613 457.207C93.6613 457.64 93.8001 458.048 94.0777 458.43C94.3583 458.811 94.7137 459.125 95.1438 459.373ZM102.24 464.59C101.794 464.333 101.39 464.003 101.027 463.599C100.664 463.193 100.376 462.743 100.162 462.249C99.9487 461.753 99.8419 461.24 99.8419 460.712C99.8419 460.247 99.9212 459.916 100.08 459.719C100.238 459.518 100.45 459.411 100.716 459.399C100.981 459.387 101.274 459.432 101.594 459.536C101.918 459.639 102.243 459.759 102.569 459.898C102.996 460.081 103.342 460.234 103.608 460.355C103.876 460.475 104.071 460.53 104.193 460.519C104.318 460.51 104.381 460.406 104.381 460.205L104.381 460.162C104.381 459.641 104.257 459.165 104.01 458.733C103.766 458.304 103.396 457.945 102.898 457.658C102.383 457.36 101.979 457.257 101.686 457.349C101.393 457.441 101.187 457.6 101.068 457.827L100.043 456.813C100.226 456.425 100.47 456.182 100.775 456.084C101.083 455.983 101.419 455.983 101.782 456.084C102.148 456.182 102.508 456.334 102.862 456.538C103.088 456.668 103.347 456.85 103.64 457.082C103.936 457.313 104.221 457.603 104.495 457.951C104.773 458.302 105.003 458.722 105.186 459.211C105.369 459.701 105.461 460.268 105.461 460.913L105.461 466.26L104.381 465.636L104.381 464.537L104.326 464.506C104.253 464.639 104.131 464.757 103.96 464.86C103.789 464.962 103.562 465.001 103.278 464.978C102.995 464.956 102.648 464.826 102.24 464.59ZM102.404 463.565C102.831 463.812 103.191 463.923 103.484 463.898C103.78 463.875 104.003 463.754 104.152 463.533C104.305 463.315 104.381 463.037 104.381 462.699L104.381 461.557C104.335 461.594 104.235 461.594 104.079 461.557C103.926 461.519 103.75 461.46 103.548 461.383C103.35 461.304 103.156 461.224 102.967 461.143C102.781 461.06 102.63 460.994 102.514 460.944C102.233 460.825 101.971 460.742 101.727 460.696C101.486 460.649 101.291 460.675 101.141 460.775C100.995 460.874 100.922 461.082 100.922 461.399C100.922 461.832 101.061 462.24 101.338 462.622C101.619 463.002 101.974 463.317 102.404 463.565ZM109.5 468.782C109.055 468.525 108.651 468.195 108.288 467.791C107.925 467.384 107.636 466.934 107.423 466.441C107.209 465.945 107.102 465.432 107.102 464.904C107.102 464.439 107.182 464.108 107.34 463.911C107.499 463.71 107.711 463.603 107.976 463.591C108.242 463.579 108.535 463.624 108.855 463.728C109.178 463.83 109.503 463.951 109.83 464.09C110.257 464.273 110.603 464.426 110.868 464.547C111.137 464.667 111.332 464.722 111.454 464.711C111.579 464.702 111.641 464.597 111.641 464.397L111.641 464.354C111.641 463.833 111.518 463.357 111.271 462.925C111.027 462.495 110.656 462.137 110.159 461.85C109.643 461.552 109.239 461.449 108.946 461.541C108.654 461.632 108.448 461.792 108.329 462.019L107.304 461.005C107.487 460.617 107.731 460.374 108.036 460.275C108.344 460.175 108.679 460.175 109.043 460.275C109.409 460.374 109.769 460.526 110.122 460.73C110.348 460.86 110.607 461.042 110.9 461.274C111.196 461.505 111.481 461.794 111.756 462.143C112.033 462.494 112.264 462.914 112.447 463.403C112.63 463.893 112.721 464.46 112.721 465.105L112.721 470.452L111.641 469.828L111.641 468.729L111.587 468.697C111.513 468.831 111.391 468.949 111.221 469.051C111.05 469.154 110.822 469.193 110.539 469.17C110.255 469.147 109.909 469.018 109.5 468.782ZM109.665 467.757C110.092 468.004 110.452 468.114 110.745 468.09C111.041 468.067 111.263 467.945 111.413 467.725C111.565 467.507 111.641 467.229 111.641 466.89L111.641 465.749C111.596 465.786 111.495 465.786 111.339 465.749C111.187 465.71 111.01 465.652 110.809 465.575C110.61 465.496 110.417 465.415 110.228 465.334C110.042 465.252 109.891 465.186 109.775 465.136C109.494 465.017 109.232 464.934 108.988 464.888C108.747 464.84 108.551 464.867 108.402 464.967C108.255 465.066 108.182 465.274 108.182 465.591C108.182 466.024 108.321 466.432 108.599 466.814C108.879 467.194 109.235 467.509 109.665 467.757ZM116.761 472.974C116.315 472.717 115.911 472.386 115.548 471.983C115.185 471.576 114.897 471.126 114.683 470.633C114.47 470.137 114.363 469.624 114.363 469.096C114.363 468.631 114.442 468.3 114.601 468.102C114.759 467.902 114.971 467.795 115.237 467.783C115.502 467.77 115.795 467.816 116.115 467.92C116.439 468.022 116.764 468.143 117.09 468.282C117.517 468.465 117.863 468.617 118.129 468.739C118.397 468.859 118.592 468.913 118.714 468.903C118.839 468.894 118.902 468.789 118.902 468.588L118.902 468.546C118.902 468.025 118.778 467.548 118.531 467.117C118.287 466.687 117.917 466.329 117.419 466.042C116.904 465.744 116.5 465.641 116.207 465.733C115.914 465.824 115.708 465.984 115.589 466.211L114.564 465.196C114.747 464.809 114.991 464.566 115.296 464.467C115.604 464.367 115.94 464.367 116.303 464.467C116.669 464.566 117.029 464.717 117.383 464.922C117.609 465.052 117.868 465.233 118.161 465.466C118.457 465.697 118.742 465.986 119.016 466.335C119.294 466.685 119.524 467.106 119.707 467.595C119.89 468.085 119.982 468.652 119.982 469.296L119.982 474.643L118.902 474.02L118.902 472.921L118.847 472.889C118.774 473.023 118.652 473.141 118.481 473.243C118.31 473.345 118.083 473.385 117.799 473.362C117.516 473.339 117.169 473.21 116.761 472.974ZM116.925 471.949C117.352 472.195 117.712 472.306 118.005 472.282C118.301 472.259 118.524 472.137 118.673 471.917C118.826 471.699 118.902 471.42 118.902 471.082L118.902 469.941C118.856 469.978 118.756 469.978 118.6 469.941C118.447 469.902 118.271 469.844 118.069 469.767C117.871 469.687 117.677 469.607 117.488 469.526C117.302 469.443 117.151 469.377 117.035 469.328C116.754 469.208 116.492 469.126 116.248 469.08C116.007 469.032 115.812 469.059 115.662 469.159C115.516 469.258 115.443 469.466 115.443 469.783C115.443 470.216 115.582 470.623 115.859 471.006C116.14 471.386 116.495 471.7 116.925 471.949ZM124.021 477.166C123.576 476.908 123.171 476.578 122.808 476.175C122.445 475.768 122.157 475.318 121.944 474.825C121.73 474.328 121.623 473.816 121.623 473.287C121.623 472.823 121.703 472.491 121.861 472.294C122.02 472.093 122.232 471.987 122.497 471.975C122.763 471.962 123.056 472.008 123.376 472.112C123.699 472.214 124.024 472.335 124.35 472.474C124.778 472.657 125.124 472.809 125.389 472.931C125.658 473.051 125.853 473.105 125.975 473.095C126.1 473.086 126.162 472.981 126.162 472.78L126.162 472.738C126.162 472.217 126.039 471.74 125.792 471.309C125.548 470.879 125.177 470.521 124.68 470.234C124.164 469.936 123.76 469.833 123.467 469.925C123.175 470.016 122.969 470.175 122.85 470.403L121.825 469.388C122.008 469.001 122.252 468.758 122.557 468.659C122.865 468.559 123.2 468.559 123.563 468.659C123.93 468.758 124.289 468.909 124.643 469.113C124.869 469.244 125.128 469.425 125.421 469.658C125.717 469.888 126.002 470.178 126.277 470.527C126.554 470.877 126.785 471.297 126.968 471.787C127.151 472.277 127.242 472.844 127.242 473.488L127.242 478.835L126.162 478.212L126.162 477.113L126.108 477.081C126.034 477.215 125.912 477.333 125.741 477.435C125.571 477.537 125.343 477.577 125.06 477.554C124.776 477.531 124.43 477.402 124.021 477.166ZM124.186 476.141C124.613 476.387 124.973 476.498 125.266 476.473C125.562 476.451 125.784 476.329 125.934 476.109C126.086 475.891 126.162 475.612 126.162 475.274L126.162 474.133C126.117 474.17 126.016 474.17 125.86 474.133C125.708 474.094 125.531 474.036 125.33 473.959C125.131 473.879 124.938 473.799 124.749 473.718C124.562 473.635 124.411 473.569 124.296 473.52C124.015 473.4 123.753 473.317 123.509 473.272C123.268 473.224 123.072 473.251 122.923 473.351C122.776 473.45 122.703 473.657 122.703 473.974C122.703 474.408 122.842 474.815 123.12 475.198C123.4 475.578 123.756 475.892 124.186 476.141ZM129.744 480.28L128.554 479.593L131.995 470.759L133.167 471.435L136.608 484.242L135.418 483.555L132.618 472.83L132.544 472.788L129.744 480.28ZM130.183 476.306L134.979 479.075L134.979 480.237L130.183 477.469L130.183 476.306ZM140.758 489.851C140.236 489.55 139.788 489.213 139.413 488.842C139.037 488.474 138.725 488.092 138.475 487.698C138.227 487.309 138.031 486.931 137.884 486.564L138.744 486.364C138.842 486.568 138.966 486.808 139.115 487.085C139.265 487.365 139.469 487.65 139.728 487.941C139.991 488.237 140.334 488.507 140.758 488.752C141.325 489.079 141.793 489.191 142.163 489.087C142.532 488.983 142.716 488.593 142.716 487.917L142.716 486.269L142.625 486.216C142.545 486.318 142.432 486.436 142.286 486.57C142.143 486.702 141.935 486.774 141.664 486.786C141.395 486.797 141.032 486.67 140.575 486.406C140.007 486.078 139.498 485.629 139.046 485.059C138.598 484.49 138.243 483.834 137.98 483.09C137.721 482.349 137.591 481.556 137.591 480.71C137.591 479.879 137.718 479.228 137.971 478.758C138.224 478.284 138.577 478.009 139.028 477.931C139.48 477.85 140.001 477.98 140.593 478.322C141.051 478.586 141.414 478.884 141.682 479.215C141.954 479.544 142.161 479.861 142.304 480.166C142.451 480.469 142.564 480.714 142.643 480.9L142.753 480.964L142.753 479.675L143.796 480.277L143.796 488.625C143.796 489.322 143.659 489.81 143.384 490.089C143.113 490.372 142.747 490.483 142.286 490.421C141.829 490.365 141.319 490.175 140.758 489.851ZM140.721 485.37C141.154 485.62 141.52 485.717 141.819 485.661C142.118 485.605 142.346 485.406 142.501 485.067C142.657 484.727 142.734 484.257 142.734 483.658C142.734 483.074 142.658 482.514 142.506 481.978C142.353 481.443 142.127 480.962 141.829 480.536C141.53 480.11 141.16 479.77 140.721 479.516C140.264 479.252 139.882 479.166 139.577 479.257C139.275 479.351 139.048 479.579 138.895 479.941C138.746 480.306 138.671 480.763 138.671 481.313C138.671 481.876 138.748 482.419 138.9 482.94C139.056 483.459 139.284 483.93 139.586 484.351C139.891 484.77 140.27 485.11 140.721 485.37ZM148.719 491.404C148.042 491.013 147.458 490.503 146.967 489.875C146.479 489.244 146.102 488.54 145.837 487.764C145.574 486.985 145.443 486.18 145.443 485.349C145.443 484.518 145.574 483.861 145.837 483.378C146.102 482.894 146.471 482.611 146.944 482.528C147.42 482.443 147.975 482.584 148.61 482.95C148.976 483.162 149.337 483.441 149.694 483.788C150.051 484.135 150.376 484.551 150.669 485.037C150.962 485.52 151.195 486.07 151.369 486.689C151.543 487.307 151.63 487.995 151.63 488.752L151.63 489.28L146.212 486.152L146.212 485.074L150.531 487.568C150.531 487.11 150.452 486.656 150.294 486.205C150.138 485.756 149.915 485.344 149.625 484.969C149.339 484.595 149 484.296 148.61 484.071C148.18 483.822 147.807 483.731 147.493 483.796C147.182 483.859 146.943 484.038 146.775 484.332C146.607 484.626 146.523 484.997 146.523 485.444L146.523 486.163C146.523 486.776 146.615 487.348 146.798 487.88C146.984 488.41 147.242 488.881 147.571 489.293C147.9 489.702 148.283 490.032 148.719 490.284C149.003 490.448 149.259 490.55 149.488 490.59C149.72 490.629 149.92 490.604 150.088 490.514C150.255 490.421 150.385 490.259 150.477 490.03L151.52 490.971C151.41 491.316 151.225 491.569 150.966 491.729C150.707 491.886 150.387 491.94 150.005 491.893C149.624 491.842 149.195 491.679 148.719 491.404ZM154.352 489.605L154.352 494.487L153.272 493.864L153.272 485.748L154.316 486.35L154.316 487.618L154.407 487.671C154.572 487.354 154.822 487.168 155.158 487.111C155.493 487.051 155.926 487.175 156.457 487.481C156.933 487.756 157.349 488.109 157.706 488.54C158.063 488.968 158.341 489.467 158.539 490.036C158.737 490.601 158.836 491.229 158.836 491.919L158.836 497.076L157.756 496.453L157.756 491.38C157.756 490.743 157.613 490.163 157.326 489.642C157.04 489.117 156.646 488.71 156.146 488.422C155.801 488.223 155.493 488.131 155.222 488.147C154.953 488.164 154.741 488.294 154.586 488.535C154.43 488.776 154.352 489.133 154.352 489.605ZM163.866 491.864L163.866 492.921L160.224 490.818L160.224 489.762L163.866 491.864ZM161.285 488.43L162.365 489.054L162.365 496.789C162.365 497.141 162.41 497.431 162.498 497.658C162.59 497.883 162.705 498.067 162.846 498.207C162.989 498.347 163.14 498.462 163.299 498.553C163.418 498.622 163.515 498.671 163.592 498.701C163.668 498.728 163.729 498.749 163.775 498.765L163.994 500.012C163.921 500.001 163.819 499.974 163.688 499.93C163.557 499.889 163.39 499.811 163.189 499.695C162.884 499.519 162.585 499.27 162.292 498.95C162.002 498.631 161.761 498.261 161.569 497.84C161.38 497.421 161.285 496.975 161.285 496.503L161.285 488.43Z" fill="white"/>
</g>
<defs>
<filter id="filter0_bi_9_723" x="107.835" y="246.678" width="265.432" height="494.71" filterUnits="userSpaceOnUse" color-interpolation-filters="sRGB">
<feFlood flood-opacity="0" result="BackgroundImageFix"/>
<feGaussianBlur in="BackgroundImageFix" stdDeviation="10.4149"/>
<feComposite in2="SourceAlpha" operator="in" result="effect1_backgroundBlur_9_723"/>
<feBlend mode="normal" in="SourceGraphic" in2="effect1_backgroundBlur_9_723" result="shape"/>
<feColorMatrix in="SourceAlpha" type="matrix" values="0 0 0 0 0 0 0 0 0 0 0 0 0 0 0 0 0 0 127 0" result="hardAlpha"/>
<feOffset dx="-2.47975" dy="-2.47975"/>
<feGaussianBlur stdDeviation="61.9937"/>
<feComposite in2="hardAlpha" operator="arithmetic" k2="-1" k3="1"/>
<feColorMatrix type="matrix" values="0 0 0 0 1 0 0 0 0 1 0 0 0 0 1 0 0 0 0.02 0"/>
<feBlend mode="normal" in2="shape" result="effect2_innerShadow_9_723"/>
</filter>
<filter id="filter1_bi_9_723" x="189.346" y="386.553" width="114.554" height="106.818" filterUnits="userSpaceOnUse" color-interpolation-filters="sRGB">
<feFlood flood-opacity="0" result="BackgroundImageFix"/>
<feGaussianBlur in="BackgroundImageFix" stdDeviation="3"/>
<feComposite in2="SourceAlpha" operator="in" result="effect1_backgroundBlur_9_723"/>
<feBlend mode="normal" in="SourceGraphic" in2="effect1_backgroundBlur_9_723" result="shape"/>
<feColorMatrix in="SourceAlpha" type="matrix" values="0 0 0 0 0 0 0 0 0 0 0 0 0 0 0 0 0 0 127 0" result="hardAlpha"/>
<feOffset dy="2"/>
<feGaussianBlur stdDeviation="1.5"/>
<feComposite in2="hardAlpha" operator="arithmetic" k2="-1" k3="1"/>
<feColorMatrix type="matrix" values="0 0 0 0 1 0 0 0 0 1 0 0 0 0 1 0 0 0 0.15 0"/>
<feBlend mode="normal" in2="shape" result="effect2_innerShadow_9_723"/>
</filter>
<filter id="filter2_bi_9_723" x="237.205" y="493.387" width="18.8369" height="47.5947" filterUnits="userSpaceOnUse" color-interpolation-filters="sRGB">
<feFlood flood-opacity="0" result="BackgroundImageFix"/>
<feGaussianBlur in="BackgroundImageFix" stdDeviation="3"/>
<feComposite in2="SourceAlpha" operator="in" result="effect1_backgroundBlur_9_723"/>
<feBlend mode="normal" in="SourceGraphic" in2="effect1_backgroundBlur_9_723" result="shape"/>
<feColorMatrix in="SourceAlpha" type="matrix" values="0 0 0 0 0 0 0 0 0 0 0 0 0 0 0 0 0 0 127 0" result="hardAlpha"/>
<feOffset dy="2"/>
<feGaussianBlur stdDeviation="1.5"/>
<feComposite in2="hardAlpha" operator="arithmetic" k2="-1" k3="1"/>
<feColorMatrix type="matrix" values="0 0 0 0 1 0 0 0 0 1 0 0 0 0 1 0 0 0 0.15 0"/>
<feBlend mode="normal" in2="shape" result="effect2_innerShadow_9_723"/>
</filter>
<filter id="filter3_bi_9_723" x="199.601" y="482.021" width="46.186" height="45.8159" filterUnits="userSpaceOnUse" color-interpolation-filters="sRGB">
<feFlood flood-opacity="0" result="BackgroundImageFix"/>
<feGaussianBlur in="BackgroundImageFix" stdDeviation="3"/>
<feComposite in2="SourceAlpha" operator="in" result="effect1_backgroundBlur_9_723"/>
<feBlend mode="normal" in="SourceGraphic" in2="effect1_backgroundBlur_9_723" result="shape"/>
<feColorMatrix in="SourceAlpha" type="matrix" values="0 0 0 0 0 0 0 0 0 0 0 0 0 0 0 0 0 0 127 0" result="hardAlpha"/>
<feOffset dy="2"/>
<feGaussianBlur stdDeviation="1.5"/>
<feComposite in2="hardAlpha" operator="arithmetic" k2="-1" k3="1"/>
<feColorMatrix type="matrix" values="0 0 0 0 1 0 0 0 0 1 0 0 0 0 1 0 0 0 0.15 0"/>
<feBlend mode="normal" in2="shape" result="effect2_innerShadow_9_723"/>
</filter>
<filter id="filter4_bi_9_723" x="247.46" y="483.404" width="46.186" height="49.3762" filterUnits="userSpaceOnUse" color-interpolation-filters="sRGB">
<feFlood flood-opacity="0" result="BackgroundImageFix"/>
<feGaussianBlur in="BackgroundImageFix" stdDeviation="3"/>
<feComposite in2="SourceAlpha" operator="in" result="effect1_backgroundBlur_9_723"/>
<feBlend mode="normal" in="SourceGraphic" in2="effect1_backgroundBlur_9_723" result="shape"/>
<feColorMatrix in="SourceAlpha" type="matrix" values="0 0 0 0 0 0 0 0 0 0 0 0 0 0 0 0 0 0 127 0" result="hardAlpha"/>
<feOffset dy="2"/>
<feGaussianBlur stdDeviation="1.5"/>
<feComposite in2="hardAlpha" operator="arithmetic" k2="-1" k3="1"/>
<feColorMatrix type="matrix" values="0 0 0 0 1 0 0 0 0 1 0 0 0 0 1 0 0 0 0.15 0"/>
<feBlend mode="normal" in2="shape" result="effect2_innerShadow_9_723"/>
</filter>
<filter id="filter5_bi_9_723" x="203.058" y="244.694" width="54.5451" height="372.954" filterUnits="userSpaceOnUse" color-interpolation-filters="sRGB">
<feFlood flood-opacity="0" result="BackgroundImageFix"/>
<feGaussianBlur in="BackgroundImageFix" stdDeviation="10.4149"/>
<feComposite in2="SourceAlpha" operator="in" result="effect1_backgroundBlur_9_723"/>
<feBlend mode="normal" in="SourceGraphic" in2="effect1_backgroundBlur_9_723" result="shape"/>
<feColorMatrix in="SourceAlpha" type="matrix" values="0 0 0 0 0 0 0 0 0 0 0 0 0 0 0 0 0 0 127 0" result="hardAlpha"/>
<feOffset dx="-2.47975" dy="-2.47975"/>
<feGaussianBlur stdDeviation="61.9937"/>
<feComposite in2="hardAlpha" operator="arithmetic" k2="-1" k3="1"/>
<feColorMatrix type="matrix" values="0 0 0 0 1 0 0 0 0 1 0 0 0 0 1 0 0 0 0.02 0"/>
<feBlend mode="normal" in2="shape" result="effect2_innerShadow_9_723"/>
</filter>
<filter id="filter6_bi_9_723" x="-20.616" y="115.747" width="278.213" height="178.234" filterUnits="userSpaceOnUse" color-interpolation-filters="sRGB">
<feFlood flood-opacity="0" result="BackgroundImageFix"/>
<feGaussianBlur in="BackgroundImageFix" stdDeviation="10.4149"/>
<feComposite in2="SourceAlpha" operator="in" result="effect1_backgroundBlur_9_723"/>
<feBlend mode="normal" in="SourceGraphic" in2="effect1_backgroundBlur_9_723" result="shape"/>
<feColorMatrix in="SourceAlpha" type="matrix" values="0 0 0 0 0 0 0 0 0 0 0 0 0 0 0 0 0 0 127 0" result="hardAlpha"/>
<feOffset dx="-2.47975" dy="-2.47975"/>
<feGaussianBlur stdDeviation="61.9937"/>
<feComposite in2="hardAlpha" operator="arithmetic" k2="-1" k3="1"/>
<feColorMatrix type="matrix" values="0 0 0 0 1 0 0 0 0 1 0 0 0 0 1 0 0 0 0.02 0"/>
<feBlend mode="normal" in2="shape" result="effect2_innerShadow_9_723"/>
</filter>
<filter id="filter7_bi_9_723" x="-20.616" y="123.186" width="265.432" height="494.71" filterUnits="userSpaceOnUse" color-interpolation-filters="sRGB">
<feFlood flood-opacity="0" result="BackgroundImageFix"/>
<feGaussianBlur in="BackgroundImageFix" stdDeviation="10.4149"/>
<feComposite in2="SourceAlpha" operator="in" result="effect1_backgroundBlur_9_723"/>
<feBlend mode="normal" in="SourceGraphic" in2="effect1_backgroundBlur_9_723" result="shape"/>
<feColorMatrix in="SourceAlpha" type="matrix" values="0 0 0 0 0 0 0 0 0 0 0 0 0 0 0 0 0 0 127 0" result="hardAlpha"/>
<feOffset dx="-2.47975" dy="-2.47975"/>
<feGaussianBlur stdDeviation="61.9937"/>
<feComposite in2="hardAlpha" operator="arithmetic" k2="-1" k3="1"/>
<feColorMatrix type="matrix" values="0 0 0 0 1 0 0 0 0 1 0 0 0 0 1 0 0 0 0.02 0"/>
<feBlend mode="normal" in2="shape" result="effect2_innerShadow_9_723"/>
</filter>
<filter id="filter8_bi_9_723" x="43.5996" y="254.017" width="107.928" height="224.924" filterUnits="userSpaceOnUse" color-interpolation-filters="sRGB">
<feFlood flood-opacity="0" result="BackgroundImageFix"/>
<feGaussianBlur in="BackgroundImageFix" stdDeviation="1.5"/>
<feComposite in2="SourceAlpha" operator="in" result="effect1_backgroundBlur_9_723"/>
<feBlend mode="normal" in="SourceGraphic" in2="effect1_backgroundBlur_9_723" result="shape"/>
<feColorMatrix in="SourceAlpha" type="matrix" values="0 0 0 0 0 0 0 0 0 0 0 0 0 0 0 0 0 0 127 0" result="hardAlpha"/>
<feOffset dy="0.5"/>
<feGaussianBlur stdDeviation="1"/>
<feComposite in2="hardAlpha" operator="arithmetic" k2="-1" k3="1"/>
<feColorMatrix type="matrix" values="0 0 0 0 1 0 0 0 0 1 0 0 0 0 1 0 0 0 0.4 0"/>
<feBlend mode="normal" in2="shape" result="effect2_innerShadow_9_723"/>
</filter>
<filter id="filter9_i_9_723" x="77.3284" y="298.23" width="49.1409" height="92.9768" filterUnits="userSpaceOnUse" color-interpolation-filters="sRGB">
<feFlood flood-opacity="0" result="BackgroundImageFix"/>
<feBlend mode="normal" in="SourceGraphic" in2="BackgroundImageFix" result="shape"/>
<feColorMatrix in="SourceAlpha" type="matrix" values="0 0 0 0 0 0 0 0 0 0 0 0 0 0 0 0 0 0 127 0" result="hardAlpha"/>
<feOffset dy="0.5"/>
<feGaussianBlur stdDeviation="0.25"/>
<feComposite in2="hardAlpha" operator="arithmetic" k2="-1" k3="1"/>
<feColorMatrix type="matrix" values="0 0 0 0 1 0 0 0 0 1 0 0 0 0 1 0 0 0 0.4 0"/>
<feBlend mode="normal" in2="shape" result="effect1_innerShadow_9_723"/>
</filter>
<radialGradient id="paint0_radial_9_723" cx="0" cy="0" r="1" gradientUnits="userSpaceOnUse" gradientTransform="rotate(51.4152) scale(414.304 280.687)">
<stop stop-color="white" stop-opacity="0.4"/>
<stop offset="1" stop-color="white" stop-opacity="0"/>
</radialGradient>
<linearGradient id="paint1_linear_9_723" x1="222.694" y1="419.544" x2="280.151" y2="433.789" gradientUnits="userSpaceOnUse">
<stop stop-color="#D2D2D2"/>
<stop offset="0.703125" stop-color="#BAC1FF"/>
</linearGradient>
<linearGradient id="paint2_linear_9_723" x1="232.949" y1="477.147" x2="265.782" y2="485.287" gradientUnits="userSpaceOnUse">
<stop stop-color="#D2D2D2"/>
<stop offset="0.703125" stop-color="#BAC1FF"/>
</linearGradient>
<linearGradient id="paint3_linear_9_723" x1="232.949" y1="526.959" x2="265.782" y2="535.099" gradientUnits="userSpaceOnUse">
<stop stop-color="#D2D2D2"/>
<stop offset="0.703125" stop-color="#BAC1FF"/>
</linearGradient>
<linearGradient id="paint4_linear_9_723" x1="195.346" y1="513.813" x2="228.178" y2="521.953" gradientUnits="userSpaceOnUse">
<stop stop-color="#D2D2D2"/>
<stop offset="0.703125" stop-color="#BAC1FF"/>
</linearGradient>
<linearGradient id="paint5_linear_9_723" x1="270.552" y1="518.757" x2="303.385" y2="526.897" gradientUnits="userSpaceOnUse">
<stop stop-color="#D2D2D2"/>
<stop offset="0.703125" stop-color="#BAC1FF"/>
</linearGradient>
<linearGradient id="paint6_linear_9_723" x1="195.346" y1="389.288" x2="316.412" y2="423.999" gradientUnits="userSpaceOnUse">
<stop stop-color="#87FFE1"/>
<stop offset="0.776042" stop-color="#5C6DFF"/>
</linearGradient>
<linearGradient id="paint7_linear_9_723" x1="198.551" y1="393.705" x2="297.9" y2="393.705" gradientUnits="userSpaceOnUse">
<stop stop-color="#3CDEB6"/>
<stop offset="0.65625" stop-color="#364AFF"/>
</linearGradient>
<linearGradient id="paint8_linear_9_723" x1="243.205" y1="499.169" x2="251.785" y2="499.589" gradientUnits="userSpaceOnUse">
<stop stop-color="#87FFE1"/>
<stop offset="0.776042" stop-color="#5C6DFF"/>
</linearGradient>
<linearGradient id="paint9_linear_9_723" x1="243.418" y1="500.801" x2="250.042" y2="500.801" gradientUnits="userSpaceOnUse">
<stop stop-color="#3CDEB6"/>
<stop offset="0.65625" stop-color="#364AFF"/>
</linearGradient>
<linearGradient id="paint10_linear_9_723" x1="205.601" y1="486.006" x2="246.646" y2="496.177" gradientUnits="userSpaceOnUse">
<stop stop-color="#87FFE1"/>
<stop offset="0.776042" stop-color="#5C6DFF"/>
</linearGradient>
<linearGradient id="paint11_linear_9_723" x1="206.67" y1="487.694" x2="239.787" y2="487.694" gradientUnits="userSpaceOnUse">
<stop stop-color="#3CDEB6"/>
<stop offset="0.65625" stop-color="#364AFF"/>
</linearGradient>
<linearGradient id="paint12_linear_9_723" x1="253.46" y1="489.187" x2="294.5" y2="499.367" gradientUnits="userSpaceOnUse">
<stop stop-color="#87FFE1"/>
<stop offset="0.776042" stop-color="#5C6DFF"/>
</linearGradient>
<linearGradient id="paint13_linear_9_723" x1="254.528" y1="490.873" x2="287.646" y2="490.873" gradientUnits="userSpaceOnUse">
<stop stop-color="#3CDEB6"/>
<stop offset="0.65625" stop-color="#364AFF"/>
</linearGradient>
<radialGradient id="paint14_radial_9_723" cx="0" cy="0" r="1" gradientUnits="userSpaceOnUse" gradientTransform="rotate(87.3696) scale(324.197 20.6545)">
<stop stop-color="white" stop-opacity="0.4"/>
<stop offset="1" stop-color="white" stop-opacity="0"/>
</radialGradient>
<radialGradient id="paint15_radial_9_723" cx="0" cy="0" r="1" gradientUnits="userSpaceOnUse" gradientTransform="rotate(86.7029) scale(258.697 20.6421)">
<stop stop-color="white" stop-opacity="0.4"/>
<stop offset="1" stop-color="white" stop-opacity="0"/>
</radialGradient>
<radialGradient id="paint16_radial_9_723" cx="0" cy="0" r="1" gradientUnits="userSpaceOnUse" gradientTransform="rotate(51.4152) scale(414.304 280.687)">
<stop stop-color="white" stop-opacity="0.4"/>
<stop offset="1" stop-color="white" stop-opacity="0"/>
</radialGradient>
<linearGradient id="paint17_linear_9_723" x1="77.0439" y1="292.402" x2="139.643" y2="300.833" gradientUnits="userSpaceOnUse">
<stop stop-color="#BCD3FF"/>
<stop offset="0.703125" stop-color="#CCCCCC"/>
</linearGradient>
<linearGradient id="paint18_linear_9_723" x1="45.6975" y1="243.161" x2="176.081" y2="258.921" gradientUnits="userSpaceOnUse">
<stop stop-color="#83E9FF"/>
<stop offset="0.453125" stop-color="#85A0FF"/>
</linearGradient>
<linearGradient id="paint19_linear_9_723" x1="48.9582" y1="253.535" x2="147.804" y2="252.849" gradientUnits="userSpaceOnUse">
<stop stop-color="#3CDEB6"/>
<stop offset="0.65625" stop-color="#364AFF"/>
</linearGradient>
<clipPath id="clip0_9_723">
<rect width="163.663" height="163.663" fill="white" transform="matrix(0.960769 0.0631623 2.11662e-08 1 168 387.491)"/>
</clipPath>
<clipPath id="clip1_9_723">
<rect width="258.39" height="323.855" fill="white" transform="matrix(0.866025 0.5 -2.20305e-08 1 0.213867 144.016)"/>
</clipPath>
<clipPath id="clip2_9_723">
<rect width="155.158" height="191.72" fill="white" transform="matrix(0.72752 0.192712 0.00758389 1.09327 40.3728 241.751)"/>
</clipPath>
</defs>
</svg>
