<svg width="224" height="454" viewBox="0 0 224 454" fill="none" xmlns="http://www.w3.org/2000/svg">
<g clip-path="url(#clip0_329_279)">
<rect width="258.39" height="323.855" transform="matrix(0.866025 0.5 -2.20305e-08 1 0.197266 0.540283)" fill="url(#paint0_radial_329_279)"/>
<path d="M56.7385 295.16L56.7385 284.339L57.8733 284.994L57.8733 290.362L57.9831 290.425L62.1928 287.488L63.6753 288.344L59.7402 290.954L63.6753 299.164L62.3026 298.372L59.0447 291.461L57.8733 292.306L57.8733 295.815L56.7385 295.16ZM67.0659 301.312C66.6205 301.055 66.2163 300.725 65.8533 300.322C65.4903 299.915 65.202 299.465 64.9885 298.972C64.775 298.475 64.6682 297.962 64.6682 297.434C64.6682 296.969 64.7475 296.638 64.9061 296.441C65.0648 296.24 65.2768 296.133 65.5422 296.121C65.8076 296.109 66.1004 296.155 66.4207 296.259C66.7441 296.361 67.0689 296.481 67.3953 296.62C67.8224 296.804 68.1686 296.956 68.434 297.077C68.7024 297.197 68.8977 297.252 69.0197 297.241C69.1448 297.232 69.2073 297.128 69.2073 296.927L69.2073 296.885C69.2073 296.363 69.0838 295.887 68.8367 295.455C68.5926 295.026 68.222 294.667 67.7248 294.38C67.2092 294.083 66.8051 293.98 66.5122 294.071C66.2194 294.163 66.0135 294.322 65.8945 294.549L64.8695 293.535C65.0526 293.147 65.2966 292.904 65.6017 292.806C65.9098 292.705 66.2453 292.705 66.6083 292.806C66.9744 292.904 67.3343 293.056 67.6882 293.26C67.9139 293.39 68.1732 293.572 68.466 293.804C68.7619 294.035 69.0472 294.325 69.3217 294.673C69.5993 295.024 69.8296 295.444 70.0126 295.934C70.1957 296.423 70.2872 296.99 70.2872 297.635L70.2872 302.982L69.2073 302.358L69.2073 301.259L69.1524 301.228C69.0792 301.362 68.9572 301.48 68.7863 301.582C68.6155 301.684 68.3883 301.723 68.1046 301.701C67.8209 301.678 67.4746 301.548 67.0659 301.312ZM67.2306 300.287C67.6577 300.534 68.0176 300.645 68.3105 300.62C68.6064 300.597 68.829 300.476 68.9785 300.256C69.131 300.037 69.2073 299.759 69.2073 299.421L69.2073 298.279C69.1615 298.316 69.0609 298.316 68.9053 298.279C68.7528 298.241 68.5759 298.183 68.3745 298.105C68.1762 298.026 67.9825 297.946 67.7934 297.865C67.6073 297.782 67.4563 297.716 67.3404 297.667C67.0598 297.547 66.7974 297.464 66.5534 297.418C66.3124 297.371 66.1172 297.397 65.9677 297.498C65.8213 297.596 65.7481 297.804 65.7481 298.121C65.7481 298.554 65.8869 298.962 66.1645 299.344C66.4451 299.725 66.8005 300.039 67.2306 300.287ZM75.3147 297.769L75.3147 298.826L71.6725 296.723L71.6725 295.666L75.3147 297.769ZM72.734 294.335L73.8139 294.958L73.8139 302.693C73.8139 303.045 73.8581 303.335 73.9466 303.562C74.0381 303.788 74.154 303.971 74.2943 304.112C74.4377 304.251 74.5887 304.366 74.7473 304.458C74.8663 304.527 74.9639 304.576 75.0402 304.606C75.1164 304.632 75.1774 304.653 75.2232 304.669L75.4428 305.916C75.3696 305.906 75.2674 305.878 75.1363 305.834C75.0051 305.794 74.8388 305.715 74.6375 305.599C74.3325 305.423 74.0335 305.175 73.7407 304.854C73.4509 304.535 73.2099 304.166 73.0177 303.745C72.8286 303.326 72.734 302.88 72.734 302.408L72.734 294.335ZM78.1699 302.651L78.1699 307.533L77.0901 306.91L77.0901 296.089L78.1699 296.712L78.1699 300.685L78.2615 300.738C78.4262 300.414 78.6733 300.224 79.0027 300.168C79.3352 300.11 79.7775 300.24 80.3297 300.559C80.8086 300.835 81.228 301.188 81.588 301.618C81.9479 302.044 82.2271 302.542 82.4253 303.111C82.6267 303.678 82.7273 304.31 82.7273 305.007L82.7273 310.164L81.6475 309.541L81.6475 304.469C81.6475 303.824 81.5026 303.242 81.2128 302.722C80.926 302.201 80.528 301.793 80.0185 301.499C79.6647 301.295 79.3474 301.198 79.0668 301.209C78.7892 301.221 78.5696 301.346 78.4079 301.584C78.2493 301.823 78.1699 302.179 78.1699 302.651ZM84.7029 311.305L84.7029 303.189L85.7462 303.792L85.7462 305.06L85.8377 305.112C85.9841 304.764 86.2205 304.564 86.5469 304.513C86.8733 304.458 87.2653 304.563 87.7229 304.827C88.1865 305.095 88.5724 305.439 88.8805 305.86C89.1917 306.279 89.4342 306.756 89.608 307.289L89.6812 307.332C89.8612 307.016 90.1312 306.839 90.4911 306.801C90.8511 306.758 91.2827 306.882 91.7861 307.173C92.4145 307.536 92.9285 308.06 93.3281 308.745C93.7277 309.426 93.9275 310.245 93.9275 311.199L93.9275 316.631L92.8476 316.007L92.8476 310.576C92.8476 309.977 92.7058 309.467 92.4221 309.046C92.1384 308.625 91.8044 308.304 91.42 308.082C90.9258 307.797 90.543 307.748 90.2715 307.937C90 308.121 89.8643 308.476 89.8643 309.001L89.8643 314.285L88.7661 313.651L88.7661 308.092C88.7661 307.631 88.6365 307.184 88.3772 306.753C88.1179 306.318 87.7839 305.982 87.3751 305.746C87.0945 305.584 86.8321 305.519 86.5881 305.551C86.3471 305.584 86.1519 305.711 86.0024 305.931C85.856 306.15 85.7828 306.458 85.7828 306.856L85.7828 311.928L84.7029 311.305ZM97.9701 319.155C97.5248 318.898 97.1206 318.567 96.7576 318.164C96.3946 317.757 96.1063 317.307 95.8928 316.814C95.6792 316.318 95.5725 315.805 95.5725 315.277C95.5725 314.812 95.6518 314.481 95.8104 314.283C95.969 314.083 96.181 313.976 96.4464 313.964C96.7118 313.951 97.0046 313.997 97.3249 314.101C97.6483 314.203 97.9732 314.324 98.2996 314.463C98.7266 314.646 99.0729 314.799 99.3383 314.92C99.6067 315.04 99.8019 315.094 99.9239 315.084C100.049 315.075 100.112 314.97 100.112 314.769L100.112 314.727C100.112 314.206 99.988 313.729 99.7409 313.298C99.4969 312.868 99.1262 312.51 98.629 312.223C98.1135 311.925 97.7093 311.822 97.4165 311.914C97.1236 312.005 96.9177 312.165 96.7987 312.392L95.7738 311.377C95.9568 310.99 96.2009 310.747 96.5059 310.648C96.814 310.548 97.1495 310.548 97.5126 310.648C97.8786 310.747 98.2386 310.898 98.5924 311.103C98.8182 311.233 99.0774 311.414 99.3703 311.647C99.6662 311.878 99.9514 312.167 100.226 312.516C100.504 312.867 100.734 313.287 100.917 313.776C101.1 314.266 101.191 314.833 101.191 315.477L101.191 320.824L100.112 320.201L100.112 319.102L100.057 319.07C99.9834 319.204 99.8614 319.322 99.6906 319.424C99.5198 319.526 99.2925 319.566 99.0088 319.543C98.7251 319.52 98.3789 319.391 97.9701 319.155ZM98.1348 318.13C98.5619 318.376 98.9219 318.487 99.2147 318.463C99.5106 318.44 99.7333 318.318 99.8828 318.098C100.035 317.88 100.112 317.601 100.112 317.263L100.112 316.122C100.066 316.159 99.9651 316.159 99.8096 316.122C99.657 316.083 99.4801 316.025 99.2788 315.948C99.0805 315.868 98.8868 315.788 98.6977 315.707C98.5116 315.625 98.3606 315.558 98.2447 315.509C97.964 315.389 97.7017 315.307 97.4576 315.261C97.2167 315.213 97.0214 315.24 96.872 315.34C96.7255 315.439 96.6523 315.647 96.6523 315.964C96.6523 316.397 96.7911 316.805 97.0687 317.187C97.3494 317.567 97.7047 317.881 98.1348 318.13ZM104.242 317.704L104.242 322.586L103.162 321.962L103.162 313.847L104.206 314.449L104.206 315.717L104.297 315.77C104.462 315.453 104.712 315.266 105.048 315.21C105.383 315.15 105.816 315.273 106.347 315.58C106.823 315.855 107.239 316.208 107.596 316.639C107.953 317.067 108.231 317.566 108.429 318.134C108.627 318.7 108.726 319.328 108.726 320.018L108.726 325.175L107.647 324.551L107.647 319.479C107.647 318.842 107.503 318.262 107.216 317.741C106.93 317.216 106.536 316.809 106.036 316.52C105.691 316.321 105.383 316.23 105.112 316.246C104.843 316.263 104.631 316.393 104.476 316.634C104.32 316.875 104.242 317.232 104.242 317.704ZM113.354 328.015C112.768 327.677 112.251 327.208 111.802 326.607C111.354 326.003 111.003 325.315 110.75 324.541C110.497 323.765 110.37 322.947 110.37 322.087C110.37 321.235 110.497 320.568 110.75 320.087C111.003 319.607 111.356 319.326 111.807 319.245C112.258 319.164 112.78 319.294 113.372 319.636C113.829 319.9 114.191 320.197 114.456 320.526C114.725 320.853 114.929 321.169 115.069 321.472C115.213 321.773 115.324 322.017 115.404 322.203L115.495 322.256L115.495 318.262L116.575 318.885L116.575 329.706L115.532 329.104L115.532 327.857L115.404 327.783C115.324 327.885 115.211 328.007 115.065 328.147C114.918 328.285 114.71 328.363 114.438 328.383C114.167 328.398 113.805 328.276 113.354 328.015ZM113.5 326.98C113.933 327.23 114.299 327.311 114.598 327.223C114.897 327.131 115.124 326.898 115.28 326.523C115.436 326.144 115.513 325.648 115.513 325.035C115.513 324.43 115.437 323.855 115.285 323.313C115.132 322.767 114.906 322.281 114.607 321.855C114.308 321.425 113.939 321.083 113.5 320.83C113.042 320.566 112.661 320.481 112.356 320.576C112.054 320.669 111.827 320.903 111.674 321.276C111.525 321.648 111.45 322.119 111.45 322.69C111.45 323.267 111.526 323.836 111.679 324.396C111.834 324.954 112.063 325.46 112.365 325.913C112.67 326.363 113.049 326.719 113.5 326.98ZM123.608 322.946L123.608 333.767L122.473 333.111L122.473 322.291L123.608 322.946ZM126.816 330.737L126.816 335.619L125.737 334.996L125.737 326.88L126.78 327.482L126.78 328.75L126.871 328.803C127.036 328.486 127.286 328.3 127.622 328.243C127.957 328.183 128.39 328.307 128.921 328.613C129.397 328.888 129.814 329.241 130.17 329.672C130.527 330.1 130.805 330.599 131.003 331.168C131.201 331.733 131.301 332.361 131.301 333.051L131.301 338.208L130.221 337.585L130.221 332.512C130.221 331.875 130.077 331.295 129.791 330.774C129.504 330.249 129.11 329.842 128.61 329.554C128.265 329.355 127.957 329.263 127.686 329.279C127.417 329.296 127.205 329.426 127.05 329.667C126.894 329.908 126.816 330.265 126.816 330.737ZM136.33 332.996L136.33 334.053L132.688 331.95L132.688 330.894L136.33 332.996ZM133.75 329.562L134.83 330.186L134.83 337.921C134.83 338.273 134.874 338.563 134.962 338.79C135.054 339.015 135.17 339.198 135.31 339.339C135.453 339.478 135.604 339.594 135.763 339.685C135.882 339.754 135.98 339.803 136.056 339.833C136.132 339.86 136.193 339.881 136.239 339.897L136.459 341.144C136.385 341.133 136.283 341.106 136.152 341.062C136.021 341.021 135.855 340.943 135.653 340.827C135.348 340.651 135.049 340.402 134.756 340.082C134.467 339.763 134.226 339.393 134.033 338.972C133.844 338.553 133.75 338.107 133.75 337.635L133.75 329.562ZM140.826 343.877C140.149 343.486 139.565 342.976 139.074 342.347C138.586 341.717 138.209 341.013 137.943 340.236C137.681 339.458 137.55 338.653 137.55 337.822C137.55 336.99 137.681 336.333 137.943 335.851C138.209 335.367 138.578 335.083 139.051 335C139.527 334.916 140.082 335.057 140.716 335.423C141.082 335.634 141.444 335.913 141.801 336.26C142.158 336.607 142.482 337.024 142.775 337.51C143.068 337.992 143.302 338.543 143.475 339.161C143.649 339.779 143.736 340.467 143.736 341.224L143.736 341.753L138.319 338.625L138.319 337.547L142.638 340.041C142.638 339.583 142.559 339.128 142.4 338.678C142.245 338.228 142.022 337.816 141.732 337.441C141.445 337.068 141.107 336.768 140.716 336.543C140.286 336.295 139.914 336.203 139.6 336.268C139.289 336.332 139.049 336.51 138.881 336.805C138.714 337.099 138.63 337.469 138.63 337.917L138.63 338.635C138.63 339.248 138.721 339.821 138.904 340.352C139.09 340.883 139.348 341.354 139.678 341.766C140.007 342.174 140.39 342.505 140.826 342.756C141.11 342.92 141.366 343.022 141.595 343.063C141.827 343.102 142.026 343.076 142.194 342.986C142.362 342.893 142.492 342.732 142.583 342.503L143.626 343.443C143.517 343.789 143.332 344.041 143.073 344.202C142.813 344.358 142.493 344.413 142.112 344.365C141.731 344.314 141.302 344.151 140.826 343.877ZM148.216 351.186C147.694 350.885 147.246 350.549 146.871 350.177C146.495 349.809 146.183 349.428 145.933 349.033C145.685 348.644 145.489 348.266 145.342 347.9L146.203 347.699C146.3 347.904 146.424 348.144 146.573 348.42C146.723 348.7 146.927 348.986 147.186 349.276C147.449 349.572 147.792 349.843 148.216 350.087C148.783 350.415 149.251 350.527 149.621 350.423C149.99 350.319 150.174 349.929 150.174 349.253L150.174 347.604L150.083 347.551C150.003 347.653 149.891 347.771 149.744 347.905C149.601 348.037 149.393 348.11 149.122 348.122C148.853 348.133 148.49 348.006 148.033 347.742C147.465 347.414 146.956 346.965 146.505 346.394C146.056 345.825 145.701 345.169 145.438 344.426C145.179 343.685 145.049 342.891 145.049 342.046C145.049 341.215 145.176 340.564 145.429 340.094C145.682 339.62 146.035 339.344 146.486 339.267C146.938 339.186 147.459 339.316 148.051 339.658C148.509 339.922 148.872 340.219 149.14 340.551C149.412 340.88 149.619 341.197 149.762 341.502C149.909 341.805 150.022 342.049 150.101 342.236L150.211 342.299L150.211 341.01L151.254 341.613L151.254 349.961C151.254 350.658 151.117 351.146 150.842 351.424C150.571 351.708 150.205 351.819 149.744 351.757C149.287 351.701 148.777 351.51 148.216 351.186ZM148.179 346.706C148.612 346.956 148.978 347.053 149.277 346.997C149.576 346.94 149.804 346.742 149.959 346.402C150.115 346.062 150.193 345.593 150.193 344.994C150.193 344.409 150.116 343.849 149.964 343.314C149.811 342.779 149.585 342.298 149.287 341.871C148.988 341.445 148.618 341.105 148.179 340.852C147.722 340.588 147.34 340.501 147.035 340.593C146.733 340.686 146.506 340.914 146.354 341.277C146.204 341.642 146.129 342.099 146.129 342.648C146.129 343.212 146.206 343.754 146.358 344.276C146.514 344.795 146.742 345.265 147.044 345.686C147.349 346.105 147.728 346.445 148.179 346.706ZM153.231 350.869L153.231 342.754L154.274 343.356L154.274 344.582L154.347 344.624C154.475 344.297 154.707 344.105 155.043 344.048C155.378 343.992 155.757 344.085 156.178 344.328C156.257 344.374 156.356 344.433 156.475 344.505C156.594 344.578 156.684 344.635 156.745 344.677L156.745 345.945C156.708 345.913 156.624 345.849 156.493 345.752C156.365 345.654 156.229 345.563 156.086 345.48C155.744 345.283 155.439 345.19 155.171 345.2C154.906 345.209 154.695 345.313 154.539 345.512C154.387 345.709 154.311 345.991 154.311 346.357L154.311 351.493L153.231 350.869ZM160.093 355.022C159.648 354.764 159.244 354.434 158.881 354.031C158.518 353.624 158.229 353.174 158.016 352.681C157.802 352.184 157.696 351.672 157.696 351.143C157.696 350.679 157.775 350.347 157.933 350.15C158.092 349.949 158.304 349.843 158.569 349.831C158.835 349.818 159.128 349.864 159.448 349.968C159.771 350.07 160.096 350.191 160.423 350.33C160.85 350.513 161.196 350.665 161.461 350.787C161.73 350.907 161.925 350.961 162.047 350.951C162.172 350.942 162.235 350.837 162.235 350.636L162.235 350.594C162.235 350.073 162.111 349.596 161.864 349.165C161.62 348.735 161.249 348.377 160.752 348.09C160.237 347.792 159.832 347.689 159.54 347.78C159.247 347.872 159.041 348.031 158.922 348.259L157.897 347.244C158.08 346.857 158.324 346.614 158.629 346.515C158.937 346.415 159.273 346.415 159.636 346.515C160.002 346.614 160.362 346.765 160.715 346.969C160.941 347.1 161.201 347.281 161.493 347.514C161.789 347.744 162.074 348.034 162.349 348.383C162.627 348.733 162.857 349.153 163.04 349.643C163.223 350.133 163.314 350.7 163.314 351.344L163.314 356.691L162.235 356.068L162.235 354.969L162.18 354.937C162.106 355.071 161.984 355.189 161.814 355.291C161.643 355.393 161.416 355.433 161.132 355.41C160.848 355.387 160.502 355.258 160.093 355.022ZM160.258 353.997C160.685 354.243 161.045 354.354 161.338 354.329C161.634 354.307 161.856 354.185 162.006 353.965C162.158 353.747 162.235 353.468 162.235 353.13L162.235 351.989C162.189 352.026 162.088 352.026 161.933 351.989C161.78 351.95 161.603 351.892 161.402 351.814C161.204 351.735 161.01 351.655 160.821 351.574C160.635 351.491 160.484 351.425 160.368 351.376C160.087 351.256 159.825 351.173 159.581 351.128C159.34 351.08 159.144 351.106 158.995 351.207C158.849 351.306 158.775 351.513 158.775 351.83C158.775 352.264 158.914 352.671 159.192 353.053C159.472 353.434 159.828 353.748 160.258 353.997ZM168.342 351.478L168.342 352.535L164.7 350.432L164.7 349.375L168.342 351.478ZM165.761 348.044L166.841 348.667L166.841 356.403C166.841 356.755 166.885 357.045 166.974 357.272C167.065 357.497 167.181 357.68 167.322 357.821C167.465 357.96 167.616 358.076 167.775 358.167C167.894 358.236 167.991 358.285 168.067 358.315C168.144 358.342 168.205 358.363 168.251 358.379L168.47 359.626C168.397 359.615 168.295 359.588 168.164 359.544C168.032 359.503 167.866 359.425 167.665 359.309C167.36 359.132 167.061 358.884 166.768 358.564C166.478 358.245 166.237 357.875 166.045 357.454C165.856 357.035 165.761 356.589 165.761 356.117L165.761 348.044ZM169.966 360.532L169.966 352.416L171.046 353.04L171.046 361.155L169.966 360.532ZM170.515 351.381C170.305 351.259 170.124 351.071 169.971 350.818C169.822 350.566 169.747 350.324 169.747 350.091C169.747 349.859 169.822 349.703 169.971 349.624C170.124 349.546 170.305 349.568 170.515 349.69C170.726 349.811 170.906 349.998 171.055 350.25C171.208 350.504 171.284 350.747 171.284 350.979C171.284 351.212 171.208 351.366 171.055 351.444C170.906 351.523 170.726 351.502 170.515 351.381ZM175.879 364.115C175.245 363.748 174.688 363.253 174.209 362.627C173.733 362.004 173.361 361.301 173.093 360.519C172.827 359.739 172.695 358.93 172.695 358.091C172.695 357.246 172.827 356.585 173.093 356.107C173.361 355.632 173.733 355.357 174.209 355.283C174.688 355.211 175.245 355.358 175.879 355.724C176.514 356.091 177.069 356.586 177.545 357.209C178.024 357.834 178.396 358.539 178.661 359.322C178.93 360.108 179.064 360.923 179.064 361.769C179.064 362.607 178.93 363.262 178.661 363.734C178.396 364.208 178.024 364.481 177.545 364.553C177.069 364.627 176.514 364.481 175.879 364.115ZM175.879 362.994C176.361 363.273 176.758 363.359 177.069 363.253C177.38 363.148 177.61 362.906 177.76 362.527C177.909 362.148 177.984 361.688 177.984 361.145C177.984 360.603 177.909 360.054 177.76 359.499C177.61 358.945 177.38 358.433 177.069 357.965C176.758 357.496 176.361 357.123 175.879 356.844C175.397 356.566 175.001 356.482 174.69 356.591C174.379 356.7 174.148 356.946 173.999 357.328C173.849 357.71 173.775 358.172 173.775 358.715C173.775 359.257 173.849 359.804 173.999 360.355C174.148 360.907 174.379 361.415 174.69 361.88C175.001 362.345 175.397 362.716 175.879 362.994ZM181.792 362.477L181.792 367.359L180.712 366.736L180.712 358.62L181.756 359.223L181.756 360.491L181.847 360.544C182.012 360.227 182.262 360.04 182.598 359.984C182.933 359.924 183.366 360.047 183.897 360.353C184.373 360.628 184.789 360.981 185.146 361.413C185.503 361.841 185.781 362.339 185.979 362.908C186.177 363.473 186.276 364.101 186.276 364.792L186.276 369.948L185.197 369.325L185.197 364.253C185.197 363.615 185.053 363.036 184.766 362.514C184.48 361.99 184.086 361.583 183.586 361.294C183.241 361.095 182.933 361.003 182.662 361.019C182.393 361.037 182.181 361.166 182.026 361.407C181.87 361.649 181.792 362.005 181.792 362.477Z" fill="white"/>
<g clip-path="url(#clip1_329_279)">
<path d="M129.474 260.907C128.675 260.375 127.987 259.596 127.562 258.741L91.2713 185.794C90.863 184.947 90.7477 184.1 90.9502 183.436C91.1528 182.771 91.657 182.342 92.3543 182.241C93.0516 182.14 93.8861 182.375 94.6782 182.895C95.4703 183.416 96.1565 184.18 96.5891 185.023L132.879 257.97C133.197 258.607 133.351 259.253 133.322 259.825C133.294 260.398 133.084 260.871 132.719 261.186C132.355 261.5 131.852 261.641 131.274 261.592C130.697 261.542 130.07 261.304 129.474 260.907Z" fill="url(#paint1_linear_329_279)"/>
<path d="M91.8685 266.36C98.5279 270.794 105.263 269.817 106.912 264.179C108.56 258.541 104.499 250.376 97.8391 245.942C91.1797 241.509 84.4447 242.485 82.7959 248.123C81.1472 253.762 85.2091 261.926 91.8685 266.36Z" fill="url(#paint2_linear_329_279)"/>
<path d="M140.1 298.471C146.759 302.905 153.494 301.929 155.143 296.29C156.792 290.652 152.73 282.487 146.07 278.054C139.411 273.62 132.676 274.597 131.027 280.235C129.379 285.873 133.44 294.038 140.1 298.471Z" fill="url(#paint3_linear_329_279)"/>
<path d="M156.461 217.891C163.12 222.325 169.855 221.348 171.504 215.71C173.153 210.072 169.091 201.907 162.431 197.474C155.772 193.04 149.037 194.016 147.388 199.655C145.739 205.293 149.801 213.458 156.461 217.891Z" fill="url(#paint4_linear_329_279)"/>
<g filter="url(#filter0_i_329_279)">
<path d="M136.135 213.507L109.004 195.445C108.205 194.912 107.517 194.133 107.091 193.278C106.666 192.423 106.538 191.562 106.736 190.885C106.934 190.208 107.442 189.771 108.147 189.669C108.852 189.566 109.697 189.808 110.497 190.34L136.379 207.572L154.081 205.005C154.786 204.919 155.622 205.169 156.411 205.701C157.2 206.233 157.877 207.005 158.298 207.85C158.718 208.695 158.848 209.546 158.66 210.22C158.471 210.894 157.978 211.336 157.288 211.452L138.484 214.178C137.779 214.281 136.934 214.039 136.135 213.507Z" fill="white" fill-opacity="0.1"/>
</g>
<path d="M136.361 207.633L136.391 207.653L136.418 207.649L154.119 205.083C154.119 205.083 154.119 205.083 154.119 205.083C154.807 204.999 155.623 205.242 156.393 205.762C157.162 206.281 157.824 207.034 158.234 207.859C158.645 208.684 158.771 209.515 158.587 210.173C158.403 210.83 157.923 211.262 157.25 211.375C157.249 211.375 157.249 211.375 157.249 211.375L138.446 214.101L138.484 214.178L138.446 214.101C137.758 214.201 136.933 213.965 136.152 213.446L109.022 195.383C108.242 194.864 107.57 194.103 107.155 193.269C106.74 192.434 106.615 191.594 106.808 190.933C107.002 190.273 107.497 189.846 108.185 189.746C108.874 189.646 109.699 189.882 110.479 190.401L136.361 207.633Z" stroke="url(#paint5_linear_329_279)" stroke-opacity="0.1" stroke-width="0.148785"/>
<g filter="url(#filter1_i_329_279)">
<path d="M144.578 283.158C143.778 282.626 143.09 281.847 142.665 280.992C142.24 280.136 142.112 279.276 142.31 278.599L144.986 269.447L132.706 244.764L124.911 239.574C124.111 239.041 123.423 238.262 122.998 237.407C122.573 236.552 122.445 235.691 122.643 235.014C122.841 234.337 123.348 233.9 124.053 233.798C124.759 233.695 125.604 233.937 126.404 234.469L135.447 240.49C136.246 241.022 136.934 241.802 137.36 242.657L150.968 270.012C151.394 270.867 151.522 271.727 151.324 272.404L148.339 282.613C148.141 283.29 147.633 283.728 146.928 283.83C146.223 283.932 145.377 283.69 144.578 283.158Z" fill="white" fill-opacity="0.1"/>
</g>
<path d="M145.058 269.495L145.066 269.47L145.05 269.438L132.77 244.754L132.754 244.722L132.724 244.702L124.929 239.512C124.149 238.993 123.477 238.232 123.062 237.398C122.647 236.563 122.522 235.723 122.715 235.062C122.908 234.402 123.404 233.975 124.092 233.875C124.78 233.775 125.605 234.011 126.386 234.53L135.429 240.551C135.429 240.551 135.429 240.551 135.429 240.551C136.209 241.071 136.881 241.831 137.296 242.666L137.296 242.666L150.905 270.021L150.968 270.012L150.905 270.021C151.32 270.855 151.445 271.695 151.252 272.356L148.267 282.565C148.073 283.226 147.578 283.653 146.89 283.753C146.201 283.852 145.376 283.617 144.596 283.097C143.816 282.577 143.144 281.817 142.729 280.982C142.314 280.148 142.189 279.308 142.382 278.647L145.058 269.495Z" stroke="url(#paint6_linear_329_279)" stroke-opacity="0.1" stroke-width="0.148785"/>
<g filter="url(#filter2_i_329_279)">
<path d="M89.2967 249.033C88.4974 248.501 87.8094 247.722 87.3842 246.867L76.3179 224.623C75.8925 223.768 75.7646 222.907 75.9623 222.23L84.1719 194.156C84.3698 193.479 84.8772 193.041 85.5825 192.939C86.2878 192.837 87.1332 193.078 87.9327 193.611C88.7322 194.143 89.4203 194.922 89.8456 195.777C90.271 196.632 90.3988 197.493 90.2008 198.17L82.3002 225.187L92.7019 246.096C93.019 246.733 93.1731 247.379 93.1446 247.951C93.1161 248.524 92.9063 248.997 92.5419 249.312C92.1774 249.626 91.6746 249.767 91.097 249.718C90.5194 249.668 89.8929 249.43 89.2967 249.033Z" fill="white" fill-opacity="0.1"/>
</g>
<path d="M76.3816 224.613L76.3179 224.623L76.3816 224.613C75.9664 223.779 75.8415 222.939 76.0345 222.278L84.2441 194.204C84.4373 193.543 84.9326 193.116 85.621 193.016C86.3093 192.917 87.1345 193.152 87.9148 193.672C88.6951 194.191 89.3668 194.952 89.7819 195.787C90.1971 196.621 90.3218 197.461 90.1286 198.122L82.228 225.139L82.2206 225.165L82.2365 225.197L92.6382 246.105C92.9477 246.727 93.098 247.358 93.0702 247.916C93.0424 248.475 92.8377 248.937 92.482 249.244C92.1263 249.551 91.6355 249.689 91.0717 249.64C90.5079 249.592 89.8965 249.36 89.3146 248.972C88.5344 248.453 87.8629 247.692 87.4479 246.858L87.3842 246.867L87.4479 246.858L76.3816 224.613Z" stroke="url(#paint7_linear_329_279)" stroke-opacity="0.1" stroke-width="0.148785"/>
<g filter="url(#filter3_bi_329_279)">
<path d="M137.36 242.657L132.823 233.538C132.398 232.683 131.71 231.904 130.911 231.372L124.882 227.358C124.082 226.825 123.394 226.046 122.969 225.191C122.544 224.336 122.416 223.475 122.614 222.798L124.106 217.694C124.304 217.017 124.176 216.157 123.751 215.302L105.222 178.058C106.899 176.085 108.154 173.711 108.946 171.012C110.57 165.459 110.213 158.737 107.919 151.694C105.626 144.652 101.499 137.605 96.0614 131.447C90.6237 125.288 84.1191 120.293 77.3701 117.094C70.621 113.895 63.9308 112.635 58.1452 113.474C52.3597 114.312 47.7388 117.212 44.8668 121.806C41.9949 126.4 41.0009 132.482 42.0105 139.283C43.0201 146.084 45.9881 153.298 50.539 160.013C55.0899 166.729 61.0194 172.643 67.5777 177.01C70.7685 179.131 74.0573 180.846 77.3397 182.1L85.192 197.884L92.469 202.729C93.2685 203.261 93.9566 204.041 94.3819 204.896C94.8073 205.751 94.935 206.611 94.7371 207.288L92.9355 213.449L95.8682 219.344C96.2934 220.199 96.9814 220.978 97.7808 221.511L103.81 225.525C104.609 226.057 105.297 226.836 105.723 227.691C106.148 228.546 106.276 229.407 106.078 230.084L104.585 235.188C104.387 235.865 104.515 236.726 104.941 237.581L109.477 246.699C109.902 247.554 110.59 248.333 111.39 248.866L129.476 260.907C130.276 261.44 131.121 261.681 131.827 261.579C132.532 261.477 133.039 261.039 133.237 260.362L137.715 245.049C137.913 244.372 137.785 243.512 137.36 242.657ZM67.5048 146.47C65.418 145.081 63.5314 143.199 62.0834 141.062C60.6353 138.926 59.691 136.63 59.3697 134.466C59.0485 132.302 59.3648 130.367 60.2786 128.905C61.1924 127.444 62.6627 126.521 64.5035 126.254C66.3444 125.987 68.4731 126.388 70.6205 127.406C72.7679 128.424 74.8376 130.013 76.5678 131.973C78.2979 133.933 79.6109 136.175 80.3407 138.415C81.0704 140.656 81.1842 142.795 80.6676 144.562C79.9748 146.931 78.1988 148.463 75.7303 148.821C73.2618 149.179 70.303 148.333 67.5048 146.47Z" fill="#1D1D1D" fill-opacity="0.05"/>
<path d="M137.36 242.657L132.823 233.538C132.398 232.683 131.71 231.904 130.911 231.372L124.882 227.358C124.082 226.825 123.394 226.046 122.969 225.191C122.544 224.336 122.416 223.475 122.614 222.798L124.106 217.694C124.304 217.017 124.176 216.157 123.751 215.302L105.222 178.058C106.899 176.085 108.154 173.711 108.946 171.012C110.57 165.459 110.213 158.737 107.919 151.694C105.626 144.652 101.499 137.605 96.0614 131.447C90.6237 125.288 84.1191 120.293 77.3701 117.094C70.621 113.895 63.9308 112.635 58.1452 113.474C52.3597 114.312 47.7388 117.212 44.8668 121.806C41.9949 126.4 41.0009 132.482 42.0105 139.283C43.0201 146.084 45.9881 153.298 50.539 160.013C55.0899 166.729 61.0194 172.643 67.5777 177.01C70.7685 179.131 74.0573 180.846 77.3397 182.1L85.192 197.884L92.469 202.729C93.2685 203.261 93.9566 204.041 94.3819 204.896C94.8073 205.751 94.935 206.611 94.7371 207.288L92.9355 213.449L95.8682 219.344C96.2934 220.199 96.9814 220.978 97.7808 221.511L103.81 225.525C104.609 226.057 105.297 226.836 105.723 227.691C106.148 228.546 106.276 229.407 106.078 230.084L104.585 235.188C104.387 235.865 104.515 236.726 104.941 237.581L109.477 246.699C109.902 247.554 110.59 248.333 111.39 248.866L129.476 260.907C130.276 261.44 131.121 261.681 131.827 261.579C132.532 261.477 133.039 261.039 133.237 260.362L137.715 245.049C137.913 244.372 137.785 243.512 137.36 242.657ZM67.5048 146.47C65.418 145.081 63.5314 143.199 62.0834 141.062C60.6353 138.926 59.691 136.63 59.3697 134.466C59.0485 132.302 59.3648 130.367 60.2786 128.905C61.1924 127.444 62.6627 126.521 64.5035 126.254C66.3444 125.987 68.4731 126.388 70.6205 127.406C72.7679 128.424 74.8376 130.013 76.5678 131.973C78.2979 133.933 79.6109 136.175 80.3407 138.415C81.0704 140.656 81.1842 142.795 80.6676 144.562C79.9748 146.931 78.1988 148.463 75.7303 148.821C73.2618 149.179 70.303 148.333 67.5048 146.47Z" fill="url(#paint8_linear_329_279)" fill-opacity="0.2"/>
<path d="M105.158 177.994L105.136 178.021L105.159 178.067L123.687 215.311C124.102 216.145 124.227 216.985 124.034 217.646L122.541 222.75C122.339 223.444 122.47 224.325 122.905 225.2C123.341 226.076 124.045 226.874 124.864 227.419L130.893 231.433C131.673 231.952 132.345 232.713 132.76 233.547L137.296 242.666C137.711 243.5 137.836 244.34 137.643 245.001L133.165 260.314C132.972 260.975 132.477 261.402 131.788 261.502C131.1 261.602 130.275 261.366 129.494 260.846L111.408 248.805C110.627 248.285 109.956 247.524 109.541 246.69L105.004 237.571C104.589 236.737 104.464 235.897 104.657 235.236L106.15 230.132C106.353 229.439 106.222 228.558 105.786 227.682C105.351 226.807 104.646 226.009 103.828 225.464L97.7987 221.45C97.0184 220.93 96.3469 220.169 95.9319 219.335L93.0151 213.472L94.8093 207.336C95.012 206.643 94.8812 205.762 94.4456 204.886C94.0101 204.011 93.3055 203.213 92.4868 202.668L85.2398 197.843L77.4034 182.091L77.3804 182.045L77.336 182.028C74.0608 180.777 70.7793 179.066 67.5956 176.949C61.0516 172.592 55.135 166.69 50.594 159.989C46.053 153.288 43.0915 146.09 42.0841 139.304C41.0766 132.518 42.0685 126.449 44.9342 121.865C47.7999 117.281 52.4107 114.388 58.1837 113.551C63.9566 112.714 70.6323 113.971 77.3666 117.163C84.1009 120.355 90.5914 125.339 96.0173 131.485C101.443 137.63 105.561 144.661 107.849 151.688C110.138 158.715 110.494 165.423 108.874 170.964C108.084 173.657 106.832 176.026 105.158 177.994ZM62.0284 141.086C63.4863 143.238 65.3859 145.133 67.4869 146.531C70.3042 148.407 73.2833 149.258 75.7687 148.898C78.2541 148.538 80.0423 146.995 80.7398 144.61C81.2599 142.831 81.1454 140.678 80.4107 138.421C79.6759 136.165 78.3539 133.908 76.6119 131.935C74.8699 129.962 72.7861 128.362 70.624 127.337C68.4619 126.312 66.3186 125.908 64.4651 126.177C62.6117 126.446 61.1313 127.375 60.2112 128.846C59.2912 130.318 58.9727 132.267 59.2962 134.445C59.6196 136.624 60.5704 138.935 62.0284 141.086Z" stroke="url(#paint9_linear_329_279)" stroke-opacity="0.1" stroke-width="0.148785"/>
</g>
<g filter="url(#filter4_i_329_279)">
<path d="M129.474 260.908C128.675 260.375 127.987 259.596 127.562 258.741L91.2716 185.794C90.8632 184.947 90.7479 184.1 90.9505 183.436C91.153 182.771 91.6572 182.342 92.3545 182.241C93.0518 182.14 93.8864 182.375 94.6784 182.895C95.4705 183.416 96.1568 184.18 96.5893 185.023L132.88 257.97C133.197 258.607 133.351 259.253 133.322 259.826C133.294 260.398 133.084 260.871 132.72 261.186C132.355 261.5 131.852 261.642 131.275 261.592C130.697 261.543 130.071 261.304 129.474 260.908Z" fill="white" fill-opacity="0.1"/>
</g>
</g>
</g>
<defs>
<filter id="filter0_i_329_279" x="106.645" y="189.646" width="52.099" height="26.5559" filterUnits="userSpaceOnUse" color-interpolation-filters="sRGB">
<feFlood flood-opacity="0" result="BackgroundImageFix"/>
<feBlend mode="normal" in="SourceGraphic" in2="BackgroundImageFix" result="shape"/>
<feColorMatrix in="SourceAlpha" type="matrix" values="0 0 0 0 0 0 0 0 0 0 0 0 0 0 0 0 0 0 127 0" result="hardAlpha"/>
<feOffset dy="2"/>
<feGaussianBlur stdDeviation="1"/>
<feComposite in2="hardAlpha" operator="arithmetic" k2="-1" k3="1"/>
<feColorMatrix type="matrix" values="0 0 0 0 1 0 0 0 0 1 0 0 0 0 1 0 0 0 0.1 0"/>
<feBlend mode="normal" in2="shape" result="effect1_innerShadow_329_279"/>
</filter>
<filter id="filter1_i_329_279" x="122.552" y="233.774" width="28.8632" height="52.0784" filterUnits="userSpaceOnUse" color-interpolation-filters="sRGB">
<feFlood flood-opacity="0" result="BackgroundImageFix"/>
<feBlend mode="normal" in="SourceGraphic" in2="BackgroundImageFix" result="shape"/>
<feColorMatrix in="SourceAlpha" type="matrix" values="0 0 0 0 0 0 0 0 0 0 0 0 0 0 0 0 0 0 127 0" result="hardAlpha"/>
<feOffset dy="2"/>
<feGaussianBlur stdDeviation="1"/>
<feComposite in2="hardAlpha" operator="arithmetic" k2="-1" k3="1"/>
<feColorMatrix type="matrix" values="0 0 0 0 1 0 0 0 0 1 0 0 0 0 1 0 0 0 0.1 0"/>
<feBlend mode="normal" in2="shape" result="effect1_innerShadow_329_279"/>
</filter>
<filter id="filter2_i_329_279" x="75.8713" y="192.916" width="17.2766" height="58.8115" filterUnits="userSpaceOnUse" color-interpolation-filters="sRGB">
<feFlood flood-opacity="0" result="BackgroundImageFix"/>
<feBlend mode="normal" in="SourceGraphic" in2="BackgroundImageFix" result="shape"/>
<feColorMatrix in="SourceAlpha" type="matrix" values="0 0 0 0 0 0 0 0 0 0 0 0 0 0 0 0 0 0 127 0" result="hardAlpha"/>
<feOffset dy="2"/>
<feGaussianBlur stdDeviation="1"/>
<feComposite in2="hardAlpha" operator="arithmetic" k2="-1" k3="1"/>
<feColorMatrix type="matrix" values="0 0 0 0 1 0 0 0 0 1 0 0 0 0 1 0 0 0 0.1 0"/>
<feBlend mode="normal" in2="shape" result="effect1_innerShadow_329_279"/>
</filter>
<filter id="filter3_bi_329_279" x="35.627" y="107.221" width="108.179" height="160.381" filterUnits="userSpaceOnUse" color-interpolation-filters="sRGB">
<feFlood flood-opacity="0" result="BackgroundImageFix"/>
<feGaussianBlur in="BackgroundImageFix" stdDeviation="3"/>
<feComposite in2="SourceAlpha" operator="in" result="effect1_backgroundBlur_329_279"/>
<feBlend mode="normal" in="SourceGraphic" in2="effect1_backgroundBlur_329_279" result="shape"/>
<feColorMatrix in="SourceAlpha" type="matrix" values="0 0 0 0 0 0 0 0 0 0 0 0 0 0 0 0 0 0 127 0" result="hardAlpha"/>
<feOffset dy="2"/>
<feGaussianBlur stdDeviation="1.5"/>
<feComposite in2="hardAlpha" operator="arithmetic" k2="-1" k3="1"/>
<feColorMatrix type="matrix" values="0 0 0 0 1 0 0 0 0 1 0 0 0 0 1 0 0 0 0.15 0"/>
<feBlend mode="normal" in2="shape" result="effect2_innerShadow_329_279"/>
</filter>
<filter id="filter4_i_329_279" x="90.8528" y="182.218" width="42.4729" height="81.3838" filterUnits="userSpaceOnUse" color-interpolation-filters="sRGB">
<feFlood flood-opacity="0" result="BackgroundImageFix"/>
<feBlend mode="normal" in="SourceGraphic" in2="BackgroundImageFix" result="shape"/>
<feColorMatrix in="SourceAlpha" type="matrix" values="0 0 0 0 0 0 0 0 0 0 0 0 0 0 0 0 0 0 127 0" result="hardAlpha"/>
<feOffset dy="2"/>
<feGaussianBlur stdDeviation="1"/>
<feComposite in2="hardAlpha" operator="arithmetic" k2="-1" k3="1"/>
<feColorMatrix type="matrix" values="0 0 0 0 1 0 0 0 0 1 0 0 0 0 1 0 0 0 0.1 0"/>
<feBlend mode="normal" in2="shape" result="effect1_innerShadow_329_279"/>
</filter>
<radialGradient id="paint0_radial_329_279" cx="0" cy="0" r="1" gradientUnits="userSpaceOnUse" gradientTransform="rotate(51.4152) scale(414.304 280.687)">
<stop stop-color="white" stop-opacity="0.4"/>
<stop offset="1" stop-color="white" stop-opacity="0"/>
</radialGradient>
<linearGradient id="paint1_linear_329_279" x1="91.6899" y1="180.906" x2="157.264" y2="229.438" gradientUnits="userSpaceOnUse">
<stop offset="0.300781" stop-color="#979797"/>
<stop offset="0.703125" stop-color="white"/>
</linearGradient>
<linearGradient id="paint2_linear_329_279" x1="85.7813" y1="237.915" x2="114.946" y2="259.499" gradientUnits="userSpaceOnUse">
<stop offset="0.300781" stop-color="#979797"/>
<stop offset="0.703125" stop-color="white"/>
</linearGradient>
<linearGradient id="paint3_linear_329_279" x1="134.013" y1="270.026" x2="163.177" y2="291.611" gradientUnits="userSpaceOnUse">
<stop offset="0.300781" stop-color="#979797"/>
<stop offset="0.703125" stop-color="white"/>
</linearGradient>
<linearGradient id="paint4_linear_329_279" x1="150.373" y1="189.446" x2="179.538" y2="211.031" gradientUnits="userSpaceOnUse">
<stop offset="0.300781" stop-color="#979797"/>
<stop offset="0.703125" stop-color="white"/>
</linearGradient>
<linearGradient id="paint5_linear_329_279" x1="112.474" y1="177.417" x2="163.858" y2="192.443" gradientUnits="userSpaceOnUse">
<stop stop-color="#3CDEB6"/>
<stop offset="0.65625" stop-color="#364AFF"/>
</linearGradient>
<linearGradient id="paint6_linear_329_279" x1="124.018" y1="234.544" x2="159.372" y2="244.882" gradientUnits="userSpaceOnUse">
<stop stop-color="#3CDEB6"/>
<stop offset="0.65625" stop-color="#364AFF"/>
</linearGradient>
<linearGradient id="paint7_linear_329_279" x1="84.9597" y1="194.109" x2="107.068" y2="200.574" gradientUnits="userSpaceOnUse">
<stop stop-color="#3CDEB6"/>
<stop offset="0.65625" stop-color="#364AFF"/>
</linearGradient>
<linearGradient id="paint8_linear_329_279" x1="50.8376" y1="98.7847" x2="182.077" y2="195.917" gradientUnits="userSpaceOnUse">
<stop stop-color="#87FFE1"/>
<stop offset="0.776042" stop-color="#5C6DFF"/>
</linearGradient>
<linearGradient id="paint9_linear_329_279" x1="53.0077" y1="105.219" x2="168.711" y2="139.053" gradientUnits="userSpaceOnUse">
<stop stop-color="#3CDEB6"/>
<stop offset="0.65625" stop-color="#364AFF"/>
</linearGradient>
<clipPath id="clip0_329_279">
<rect width="258.39" height="323.855" fill="white" transform="matrix(0.866025 0.5 -2.20305e-08 1 0.197266 0.540283)"/>
</clipPath>
<clipPath id="clip1_329_279">
<rect width="142.834" height="142.834" fill="white" transform="matrix(0.97082 0.646347 -0.240356 0.821944 49.3311 97.7817)"/>
</clipPath>
</defs>
</svg>
