<svg width="37" height="44" viewBox="0 0 37 44" fill="none" xmlns="http://www.w3.org/2000/svg">
<path d="M7.88417 2.55286C5.86381 4.72925 5.86382 8.25103 7.92159 10.4274L12.4113 15.1759C16.639 19.6474 16.639 26.9284 12.4113 31.3999L4.18019 22.6943C2.0663 20.4586 1 17.5106 1 14.5823C1 11.6541 2.0663 8.70609 4.18019 6.47035L7.82805 2.61221C7.84676 2.59243 7.86546 2.57265 7.88417 2.55286Z" fill="black"/>
<path d="M11.476 14.1847L7.9217 10.4254C5.86393 8.24906 5.84523 4.74706 7.88429 2.55089C9.90464 0.45365 13.1222 0.493217 15.1239 2.61025C16.1341 3.67865 16.6392 5.08341 16.6392 6.46839C16.6392 7.85336 16.1341 9.25812 15.1239 10.3265L14.2821 11.2169" fill="black"/>
<path d="M29.1158 41.4289C31.1362 39.2526 31.1362 35.7308 29.0784 33.5544L24.5887 28.8059C20.361 24.3344 20.361 17.0534 24.5887 12.5819L32.8198 21.2875C34.9337 23.5232 36 26.4712 36 29.3995C36 32.3277 34.9337 35.2757 32.8198 37.5114L29.1719 41.3696C29.1345 41.4092 29.1158 41.4289 29.1158 41.4289Z" fill="black"/>
<path d="M25.5054 29.8153L29.0598 33.5746C31.1175 35.7509 31.1362 39.2529 29.0972 41.4491C27.0768 43.5463 23.8592 43.5068 21.8576 41.3898C20.8474 40.3213 20.3423 38.9166 20.3423 37.5316C20.3423 36.1466 20.8474 34.7419 21.8576 33.6735L22.7181 32.7634" fill="black"/>
<path d="M11.476 14.1847L7.9217 10.4254C5.86393 8.24906 5.84523 4.74706 7.88429 2.55089C9.90464 0.45365 13.1222 0.493217 15.1239 2.61025C16.1341 3.67865 16.6392 5.08341 16.6392 6.46839C16.6392 7.85336 16.1341 9.25812 15.1239 10.3265L14.2821 11.2169M25.5054 29.8153L29.0598 33.5746C31.1175 35.7509 31.1362 39.2529 29.0972 41.4491C27.0768 43.5463 23.8592 43.5068 21.8576 41.3898C20.8474 40.3213 20.3423 38.9166 20.3423 37.5316C20.3423 36.1466 20.8474 34.7419 21.8576 33.6735L22.7181 32.7634M7.88417 2.55286C5.86381 4.72925 5.86382 8.25103 7.92159 10.4274L12.4113 15.1759C16.639 19.6474 16.639 26.9284 12.4113 31.3999L4.18019 22.6943C2.0663 20.4586 1 17.5106 1 14.5823C1 11.6541 2.0663 8.70609 4.18019 6.47035L7.82805 2.61221C7.84676 2.59243 7.86546 2.57265 7.88417 2.55286ZM29.1158 41.4289C31.1362 39.2526 31.1362 35.7308 29.0784 33.5544L24.5887 28.8059C20.361 24.3344 20.361 17.0534 24.5887 12.5819L32.8198 21.2875C34.9337 23.5232 36 26.4712 36 29.3995C36 32.3277 34.9337 35.2757 32.8198 37.5114L29.1719 41.3696C29.1345 41.4092 29.1158 41.4289 29.1158 41.4289Z" stroke="white" stroke-width="2" stroke-miterlimit="10"/>
</svg>
