<svg width="21" height="17" viewBox="0 0 21 17" fill="none" xmlns="http://www.w3.org/2000/svg">
<path d="M6.50875 16.251C14.0557 16.251 18.1838 9.99796 18.1838 4.57596C18.1838 4.39796 18.1837 4.22096 18.1717 4.04596C18.9749 3.46448 19.6681 2.74457 20.2188 1.91996C19.4698 2.25196 18.6753 2.46972 17.8617 2.56596C18.7184 2.05302 19.3595 1.24631 19.6658 0.295957C18.8605 0.773843 17.9795 1.11069 17.0607 1.29196C16.4421 0.633722 15.6238 0.197791 14.7324 0.0516617C13.841 -0.0944679 12.9263 0.057356 12.1299 0.483626C11.3335 0.909895 10.6998 1.58683 10.327 2.40962C9.95425 3.2324 9.86312 4.15514 10.0677 5.03496C8.43634 4.9532 6.84035 4.52928 5.3834 3.79073C3.92644 3.05217 2.64108 2.01548 1.61075 0.747957C1.08607 1.65116 0.925339 2.72038 1.16129 3.73792C1.39723 4.75547 2.01212 5.64483 2.88075 6.22496C2.22801 6.20606 1.58938 6.03046 1.01875 5.71296V5.76496C1.01914 6.71225 1.34715 7.63026 1.94715 8.36331C2.54715 9.09637 3.38222 9.59934 4.31075 9.78696C3.70656 9.95167 3.07264 9.97562 2.45775 9.85696C2.71991 10.6724 3.23043 11.3856 3.91788 11.8966C4.60533 12.4076 5.43532 12.6909 6.29175 12.707C5.44087 13.3755 4.46654 13.8698 3.42448 14.1615C2.38242 14.4532 1.29307 14.5366 0.21875 14.407C2.09535 15.6113 4.27894 16.2501 6.50875 16.247" fill="#9CA3AF"/>
</svg>
